<svg width="150" height="150" viewBox="0 0 150 150" fill="none" xmlns="http://www.w3.org/2000/svg">
<g clip-path="url(#clip0_13104_324139)">
<path d="M150 0H0V150H150V0Z" fill="#F7F8FA"/>
<path d="M46.0433 4.83887C47.4213 4.83887 48.5383 5.95591 48.5383 7.33383C48.5383 8.71181 47.4213 9.82879 46.0433 9.82879C44.6654 9.82879 43.5483 8.71181 43.5483 7.33383C43.5483 5.95591 44.6654 4.83887 46.0433 4.83887Z" fill="#434C5E"/>
<path d="M60.5594 4.83887C61.9374 4.83887 63.0544 5.95591 63.0544 7.33383C63.0544 8.71181 61.9374 9.82879 60.5594 9.82879C59.1815 9.82879 58.0645 8.71181 58.0645 7.33383C58.0645 5.95591 59.1815 4.83887 60.5594 4.83887Z" fill="#434C5E"/>
<path d="M65.398 4.83887C66.776 4.83887 67.893 5.95591 67.893 7.33383C67.893 8.71181 66.776 9.82879 65.398 9.82879C64.0201 9.82879 62.9031 8.71181 62.9031 7.33383C62.9031 5.95591 64.0201 4.83887 65.398 4.83887Z" fill="#434C5E"/>
<path d="M70.2369 4.83887C71.6149 4.83887 72.7319 5.95591 72.7319 7.33383C72.7319 8.71181 71.6149 9.82879 70.2369 9.82879C68.859 9.82879 67.7419 8.71181 67.7419 7.33383C67.7419 5.95591 68.859 4.83887 70.2369 4.83887Z" fill="#434C5E"/>
<path d="M99.2691 4.83887C100.647 4.83887 101.764 5.95591 101.764 7.33383C101.764 8.71181 100.647 9.82879 99.2691 9.82879C97.8912 9.82879 96.7742 8.71181 96.7742 7.33383C96.7742 5.95591 97.8912 4.83887 99.2691 4.83887Z" fill="#434C5E"/>
<path d="M104.108 4.83887C105.486 4.83887 106.603 5.95591 106.603 7.33383C106.603 8.71181 105.486 9.82879 104.108 9.82879C102.73 9.82879 101.613 8.71181 101.613 7.33383C101.613 5.95591 102.73 4.83887 104.108 4.83887Z" fill="#434C5E"/>
<path d="M46.0433 9.67773C47.4213 9.67773 48.5383 10.7948 48.5383 12.1727C48.5383 13.5507 47.4213 14.6677 46.0433 14.6677C44.6654 14.6677 43.5483 13.5507 43.5483 12.1727C43.5483 10.7948 44.6654 9.67773 46.0433 9.67773Z" fill="#434C5E"/>
<path d="M79.9141 9.67773C81.2921 9.67773 82.4091 10.7948 82.4091 12.1727C82.4091 13.5507 81.2921 14.6677 79.9141 14.6677C78.5362 14.6677 77.4192 13.5507 77.4192 12.1727C77.4192 10.7948 78.5362 9.67773 79.9141 9.67773Z" fill="#434C5E"/>
<path d="M89.5916 9.67773C90.9696 9.67773 92.0866 10.7948 92.0866 12.1727C92.0866 13.5507 90.9696 14.6677 89.5916 14.6677C88.2137 14.6677 87.0967 13.5507 87.0967 12.1727C87.0967 10.7948 88.2137 9.67773 89.5916 9.67773Z" fill="#434C5E"/>
<path d="M46.0433 14.5161C47.4213 14.5161 48.5383 15.6332 48.5383 17.0111C48.5383 18.3891 47.4213 19.506 46.0433 19.506C44.6654 19.506 43.5483 18.3891 43.5483 17.0111C43.5483 15.6332 44.6654 14.5161 46.0433 14.5161Z" fill="#434C5E"/>
<path d="M60.5594 14.5161C61.9374 14.5161 63.0544 15.6332 63.0544 17.0111C63.0544 18.3891 61.9374 19.506 60.5594 19.506C59.1815 19.506 58.0645 18.3891 58.0645 17.0111C58.0645 15.6332 59.1815 14.5161 60.5594 14.5161Z" fill="#434C5E"/>
<path d="M65.3983 14.5161C66.7763 14.5161 67.8932 15.6332 67.8932 17.0111C67.8932 18.3891 66.7763 19.506 65.3983 19.506C64.0204 19.506 62.9033 18.3891 62.9033 17.0111C62.9033 15.6332 64.0204 14.5161 65.3983 14.5161Z" fill="#434C5E"/>
<path d="M75.0755 14.5161C76.4535 14.5161 77.5705 15.6332 77.5705 17.0111C77.5705 18.3891 76.4535 19.506 75.0755 19.506C73.6976 19.506 72.5806 18.3891 72.5806 17.0111C72.5806 15.6332 73.6976 14.5161 75.0755 14.5161Z" fill="#434C5E"/>
<path d="M84.753 14.5161C86.131 14.5161 87.248 15.6332 87.248 17.0111C87.248 18.3891 86.131 19.506 84.753 19.506C83.3751 19.506 82.2581 18.3891 82.2581 17.0111C82.2581 15.6332 83.3751 14.5161 84.753 14.5161Z" fill="#434C5E"/>
<path d="M55.7205 19.355C57.0985 19.355 58.2155 20.472 58.2155 21.8499C58.2155 23.2279 57.0985 24.3449 55.7205 24.3449C54.3426 24.3449 53.2256 23.2279 53.2256 21.8499C53.2256 20.472 54.3426 19.355 55.7205 19.355Z" fill="#434C5E"/>
<path d="M65.398 19.355C66.776 19.355 67.893 20.472 67.893 21.8499C67.893 23.2279 66.776 24.3449 65.398 24.3449C64.0201 24.3449 62.9031 23.2279 62.9031 21.8499C62.9031 20.472 64.0201 19.355 65.398 19.355Z" fill="#434C5E"/>
<path d="M70.2369 19.355C71.6149 19.355 72.7319 20.472 72.7319 21.8499C72.7319 23.2279 71.6149 24.3449 70.2369 24.3449C68.859 24.3449 67.7419 23.2279 67.7419 21.8499C67.7419 20.472 68.859 19.355 70.2369 19.355Z" fill="#434C5E"/>
<path d="M84.753 19.355C86.131 19.355 87.248 20.472 87.248 21.8499C87.248 23.2279 86.131 24.3449 84.753 24.3449C83.3751 24.3449 82.2581 23.2279 82.2581 21.8499C82.2581 20.472 83.3751 19.355 84.753 19.355Z" fill="#434C5E"/>
<path d="M89.5916 19.355C90.9696 19.355 92.0866 20.472 92.0866 21.8499C92.0866 23.2279 90.9696 24.3449 89.5916 24.3449C88.2137 24.3449 87.0967 23.2279 87.0967 21.8499C87.0967 20.472 88.2137 19.355 89.5916 19.355Z" fill="#434C5E"/>
<path d="M94.4303 19.355C95.8082 19.355 96.9252 20.472 96.9252 21.8499C96.9252 23.2279 95.8082 24.3449 94.4303 24.3449C93.0523 24.3449 91.9353 23.2279 91.9353 21.8499C91.9353 20.472 93.0523 19.355 94.4303 19.355Z" fill="#434C5E"/>
<path d="M104.108 19.355C105.486 19.355 106.603 20.472 106.603 21.8499C106.603 23.2279 105.486 24.3449 104.108 24.3449C102.73 24.3449 101.613 23.2279 101.613 21.8499C101.613 20.472 102.73 19.355 104.108 19.355Z" fill="#434C5E"/>
<path d="M50.8819 24.1938C52.2599 24.1938 53.3769 25.3109 53.3769 26.6888C53.3769 28.0668 52.2599 29.1838 50.8819 29.1838C49.504 29.1838 48.387 28.0668 48.387 26.6888C48.387 25.3109 49.504 24.1938 50.8819 24.1938Z" fill="#434C5E"/>
<path d="M60.5594 24.1938C61.9374 24.1938 63.0544 25.3109 63.0544 26.6888C63.0544 28.0668 61.9374 29.1838 60.5594 29.1838C59.1815 29.1838 58.0645 28.0668 58.0645 26.6888C58.0645 25.3109 59.1815 24.1938 60.5594 24.1938Z" fill="#434C5E"/>
<path d="M65.398 24.1938C66.776 24.1938 67.893 25.3109 67.893 26.6888C67.893 28.0668 66.776 29.1838 65.398 29.1838C64.0201 29.1838 62.9031 28.0668 62.9031 26.6888C62.9031 25.3109 64.0201 24.1938 65.398 24.1938Z" fill="#434C5E"/>
<path d="M75.0755 24.1938C76.4535 24.1938 77.5705 25.3109 77.5705 26.6888C77.5705 28.0668 76.4535 29.1838 75.0755 29.1838C73.6976 29.1838 72.5806 28.0668 72.5806 26.6888C72.5806 25.3109 73.6976 24.1938 75.0755 24.1938Z" fill="#434C5E"/>
<path d="M79.9141 24.1938C81.2921 24.1938 82.4091 25.3109 82.4091 26.6888C82.4091 28.0668 81.2921 29.1838 79.9141 29.1838C78.5362 29.1838 77.4192 28.0668 77.4192 26.6888C77.4192 25.3109 78.5362 24.1938 79.9141 24.1938Z" fill="#434C5E"/>
<path d="M84.7528 24.1938C86.1308 24.1938 87.2477 25.3109 87.2477 26.6888C87.2477 28.0668 86.1308 29.1838 84.7528 29.1838C83.3749 29.1838 82.2578 28.0668 82.2578 26.6888C82.2578 25.3109 83.3749 24.1938 84.7528 24.1938Z" fill="#434C5E"/>
<path d="M94.4303 24.1938C95.8082 24.1938 96.9252 25.3109 96.9252 26.6888C96.9252 28.0668 95.8082 29.1838 94.4303 29.1838C93.0523 29.1838 91.9353 28.0668 91.9353 26.6888C91.9353 25.3109 93.0523 24.1938 94.4303 24.1938Z" fill="#434C5E"/>
<path d="M99.2691 24.1938C100.647 24.1938 101.764 25.3109 101.764 26.6888C101.764 28.0668 100.647 29.1838 99.2691 29.1838C97.8912 29.1838 96.7742 28.0668 96.7742 26.6888C96.7742 25.3109 97.8912 24.1938 99.2691 24.1938Z" fill="#434C5E"/>
<path d="M104.108 24.1938C105.486 24.1938 106.603 25.3109 106.603 26.6888C106.603 28.0668 105.486 29.1838 104.108 29.1838C102.73 29.1838 101.613 28.0668 101.613 26.6888C101.613 25.3109 102.73 24.1938 104.108 24.1938Z" fill="#434C5E"/>
<path d="M46.0433 29.0322C47.4213 29.0322 48.5383 30.1493 48.5383 31.5272C48.5383 32.9052 47.4213 34.0221 46.0433 34.0221C44.6654 34.0221 43.5483 32.9052 43.5483 31.5272C43.5483 30.1493 44.6654 29.0322 46.0433 29.0322Z" fill="#434C5E"/>
<path d="M65.3983 29.0322C66.7763 29.0322 67.8932 30.1493 67.8932 31.5272C67.8932 32.9052 66.7763 34.0221 65.3983 34.0221C64.0204 34.0221 62.9033 32.9052 62.9033 31.5272C62.9033 30.1493 64.0204 29.0322 65.3983 29.0322Z" fill="#434C5E"/>
<path d="M75.0755 29.0322C76.4535 29.0322 77.5705 30.1493 77.5705 31.5272C77.5705 32.9052 76.4535 34.0221 75.0755 34.0221C73.6976 34.0221 72.5806 32.9052 72.5806 31.5272C72.5806 30.1493 73.6976 29.0322 75.0755 29.0322Z" fill="#434C5E"/>
<path d="M79.9144 29.0322C81.2924 29.0322 82.4094 30.1493 82.4094 31.5272C82.4094 32.9052 81.2924 34.0221 79.9144 34.0221C78.5365 34.0221 77.4194 32.9052 77.4194 31.5272C77.4194 30.1493 78.5365 29.0322 79.9144 29.0322Z" fill="#434C5E"/>
<path d="M84.753 29.0322C86.131 29.0322 87.248 30.1493 87.248 31.5272C87.248 32.9052 86.131 34.0221 84.753 34.0221C83.3751 34.0221 82.2581 32.9052 82.2581 31.5272C82.2581 30.1493 83.3751 29.0322 84.753 29.0322Z" fill="#434C5E"/>
<path d="M89.5916 29.0322C90.9696 29.0322 92.0866 30.1493 92.0866 31.5272C92.0866 32.9052 90.9696 34.0221 89.5916 34.0221C88.2137 34.0221 87.0967 32.9052 87.0967 31.5272C87.0967 30.1493 88.2137 29.0322 89.5916 29.0322Z" fill="#434C5E"/>
<path d="M94.4305 29.0322C95.8085 29.0322 96.9255 30.1493 96.9255 31.5272C96.9255 32.9052 95.8085 34.0221 94.4305 34.0221C93.0526 34.0221 91.9355 32.9052 91.9355 31.5272C91.9355 30.1493 93.0526 29.0322 94.4305 29.0322Z" fill="#434C5E"/>
<path d="M104.108 29.0322C105.486 29.0322 106.603 30.1493 106.603 31.5272C106.603 32.9052 105.486 34.0221 104.108 34.0221C102.73 34.0221 101.613 32.9052 101.613 31.5272C101.613 30.1493 102.73 29.0322 104.108 29.0322Z" fill="#434C5E"/>
<path d="M46.0433 33.8711C47.4213 33.8711 48.5383 34.9881 48.5383 36.3661C48.5383 37.744 47.4213 38.861 46.0433 38.861C44.6654 38.861 43.5483 37.744 43.5483 36.3661C43.5483 34.9881 44.6654 33.8711 46.0433 33.8711Z" fill="#434C5E"/>
<path d="M55.7205 33.8711C57.0985 33.8711 58.2155 34.9881 58.2155 36.3661C58.2155 37.744 57.0985 38.861 55.7205 38.861C54.3426 38.861 53.2256 37.744 53.2256 36.3661C53.2256 34.9881 54.3426 33.8711 55.7205 33.8711Z" fill="#434C5E"/>
<path d="M65.398 33.8711C66.776 33.8711 67.893 34.9881 67.893 36.3661C67.893 37.744 66.776 38.861 65.398 38.861C64.0201 38.861 62.9031 37.744 62.9031 36.3661C62.9031 34.9881 64.0201 33.8711 65.398 33.8711Z" fill="#434C5E"/>
<path d="M75.0755 33.8711C76.4535 33.8711 77.5705 34.9881 77.5705 36.3661C77.5705 37.744 76.4535 38.861 75.0755 38.861C73.6976 38.861 72.5806 37.744 72.5806 36.3661C72.5806 34.9881 73.6976 33.8711 75.0755 33.8711Z" fill="#434C5E"/>
<path d="M84.753 33.8711C86.131 33.8711 87.248 34.9881 87.248 36.3661C87.248 37.744 86.131 38.861 84.753 38.861C83.3751 38.861 82.2581 37.744 82.2581 36.3661C82.2581 34.9881 83.3751 33.8711 84.753 33.8711Z" fill="#434C5E"/>
<path d="M94.4303 33.8711C95.8082 33.8711 96.9252 34.9881 96.9252 36.3661C96.9252 37.744 95.8082 38.861 94.4303 38.861C93.0523 38.861 91.9353 37.744 91.9353 36.3661C91.9353 34.9881 93.0523 33.8711 94.4303 33.8711Z" fill="#434C5E"/>
<path d="M104.108 33.8711C105.486 33.8711 106.603 34.9881 106.603 36.3661C106.603 37.744 105.486 38.861 104.108 38.861C102.73 38.861 101.613 37.744 101.613 36.3661C101.613 34.9881 102.73 33.8711 104.108 33.8711Z" fill="#434C5E"/>
<path d="M46.0433 38.71C47.4213 38.71 48.5383 39.827 48.5383 41.2049C48.5383 42.5829 47.4213 43.6999 46.0433 43.6999C44.6654 43.6999 43.5483 42.5829 43.5483 41.2049C43.5483 39.827 44.6654 38.71 46.0433 38.71Z" fill="#434C5E"/>
<path d="M65.398 38.71C66.776 38.71 67.893 39.827 67.893 41.2049C67.893 42.5829 66.776 43.6999 65.398 43.6999C64.0201 43.6999 62.9031 42.5829 62.9031 41.2049C62.9031 39.827 64.0201 38.71 65.398 38.71Z" fill="#434C5E"/>
<path d="M79.9141 38.71C81.2921 38.71 82.4091 39.827 82.4091 41.2049C82.4091 42.5829 81.2921 43.6999 79.9141 43.6999C78.5362 43.6999 77.4192 42.5829 77.4192 41.2049C77.4192 39.827 78.5362 38.71 79.9141 38.71Z" fill="#434C5E"/>
<path d="M84.7528 38.71C86.1308 38.71 87.2477 39.827 87.2477 41.2049C87.2477 42.5829 86.1308 43.6999 84.7528 43.6999C83.3749 43.6999 82.2578 42.5829 82.2578 41.2049C82.2578 39.827 83.3749 38.71 84.7528 38.71Z" fill="#434C5E"/>
<path d="M99.2691 38.71C100.647 38.71 101.764 39.827 101.764 41.2049C101.764 42.5829 100.647 43.6999 99.2691 43.6999C97.8912 43.6999 96.7742 42.5829 96.7742 41.2049C96.7742 39.827 97.8912 38.71 99.2691 38.71Z" fill="#434C5E"/>
<path d="M104.108 38.71C105.486 38.71 106.603 39.827 106.603 41.2049C106.603 42.5829 105.486 43.6999 104.108 43.6999C102.73 43.6999 101.613 42.5829 101.613 41.2049C101.613 39.827 102.73 38.71 104.108 38.71Z" fill="#434C5E"/>
<path d="M17.0108 43.5483C18.3888 43.5483 19.5058 44.6654 19.5058 46.0433C19.5058 47.4213 18.3888 48.5383 17.0108 48.5383C15.6329 48.5383 14.5159 47.4213 14.5159 46.0433C14.5159 44.6654 15.6329 43.5483 17.0108 43.5483Z" fill="#434C5E"/>
<path d="M21.8497 43.5483C23.2277 43.5483 24.3447 44.6654 24.3447 46.0433C24.3447 47.4213 23.2277 48.5383 21.8497 48.5383C20.4718 48.5383 19.3547 47.4213 19.3547 46.0433C19.3547 44.6654 20.4718 43.5483 21.8497 43.5483Z" fill="#434C5E"/>
<path d="M26.6886 43.5483C28.0665 43.5483 29.1835 44.6654 29.1835 46.0433C29.1835 47.4213 28.0665 48.5383 26.6886 48.5383C25.3106 48.5383 24.1936 47.4213 24.1936 46.0433C24.1936 44.6654 25.3106 43.5483 26.6886 43.5483Z" fill="#434C5E"/>
<path d="M36.3658 43.5483C37.7438 43.5483 38.8608 44.6654 38.8608 46.0433C38.8608 47.4213 37.7438 48.5383 36.3658 48.5383C34.9879 48.5383 33.8708 47.4213 33.8708 46.0433C33.8708 44.6654 34.9879 43.5483 36.3658 43.5483Z" fill="#434C5E"/>
<path d="M46.0433 43.5483C47.4213 43.5483 48.5383 44.6654 48.5383 46.0433C48.5383 47.4213 47.4213 48.5383 46.0433 48.5383C44.6654 48.5383 43.5483 47.4213 43.5483 46.0433C43.5483 44.6654 44.6654 43.5483 46.0433 43.5483Z" fill="#434C5E"/>
<path d="M55.7208 43.5483C57.0988 43.5483 58.2157 44.6654 58.2157 46.0433C58.2157 47.4213 57.0988 48.5383 55.7208 48.5383C54.3429 48.5383 53.2258 47.4213 53.2258 46.0433C53.2258 44.6654 54.3429 43.5483 55.7208 43.5483Z" fill="#434C5E"/>
<path d="M60.5594 43.5483C61.9374 43.5483 63.0544 44.6654 63.0544 46.0433C63.0544 47.4213 61.9374 48.5383 60.5594 48.5383C59.1815 48.5383 58.0645 47.4213 58.0645 46.0433C58.0645 44.6654 59.1815 43.5483 60.5594 43.5483Z" fill="#434C5E"/>
<path d="M70.2369 43.5483C71.6149 43.5483 72.7319 44.6654 72.7319 46.0433C72.7319 47.4213 71.6149 48.5383 70.2369 48.5383C68.859 48.5383 67.7419 47.4213 67.7419 46.0433C67.7419 44.6654 68.859 43.5483 70.2369 43.5483Z" fill="#434C5E"/>
<path d="M94.4305 43.5483C95.8085 43.5483 96.9255 44.6654 96.9255 46.0433C96.9255 47.4213 95.8085 48.5383 94.4305 48.5383C93.0526 48.5383 91.9355 47.4213 91.9355 46.0433C91.9355 44.6654 93.0526 43.5483 94.4305 43.5483Z" fill="#434C5E"/>
<path d="M104.108 43.5483C105.486 43.5483 106.603 44.6654 106.603 46.0433C106.603 47.4213 105.486 48.5383 104.108 48.5383C102.73 48.5383 101.613 47.4213 101.613 46.0433C101.613 44.6654 102.73 43.5483 104.108 43.5483Z" fill="#434C5E"/>
<path d="M108.947 43.5483C110.325 43.5483 111.442 44.6654 111.442 46.0433C111.442 47.4213 110.325 48.5383 108.947 48.5383C107.569 48.5383 106.452 47.4213 106.452 46.0433C106.452 44.6654 107.569 43.5483 108.947 43.5483Z" fill="#434C5E"/>
<path d="M113.785 43.5483C115.163 43.5483 116.28 44.6654 116.28 46.0433C116.28 47.4213 115.163 48.5383 113.785 48.5383C112.407 48.5383 111.29 47.4213 111.29 46.0433C111.29 44.6654 112.407 43.5483 113.785 43.5483Z" fill="#434C5E"/>
<path d="M118.624 43.5483C120.002 43.5483 121.119 44.6654 121.119 46.0433C121.119 47.4213 120.002 48.5383 118.624 48.5383C117.246 48.5383 116.129 47.4213 116.129 46.0433C116.129 44.6654 117.246 43.5483 118.624 43.5483Z" fill="#434C5E"/>
<path d="M133.14 43.5483C134.518 43.5483 135.635 44.6654 135.635 46.0433C135.635 47.4213 134.518 48.5383 133.14 48.5383C131.762 48.5383 130.645 47.4213 130.645 46.0433C130.645 44.6654 131.762 43.5483 133.14 43.5483Z" fill="#434C5E"/>
<path d="M137.979 43.5483C139.357 43.5483 140.474 44.6654 140.474 46.0433C140.474 47.4213 139.357 48.5383 137.979 48.5383C136.601 48.5383 135.484 47.4213 135.484 46.0433C135.484 44.6654 136.601 43.5483 137.979 43.5483Z" fill="#434C5E"/>
<path d="M142.817 43.5483C144.195 43.5483 145.312 44.6654 145.312 46.0433C145.312 47.4213 144.195 48.5383 142.817 48.5383C141.44 48.5383 140.323 47.4213 140.323 46.0433C140.323 44.6654 141.44 43.5483 142.817 43.5483Z" fill="#434C5E"/>
<path d="M12.1722 48.3872C13.5502 48.3872 14.6672 49.5043 14.6672 50.8822C14.6672 52.2602 13.5502 53.3771 12.1722 53.3771C10.7943 53.3771 9.67725 52.2602 9.67725 50.8822C9.67725 49.5043 10.7943 48.3872 12.1722 48.3872Z" fill="#434C5E"/>
<path d="M17.0111 48.3872C18.3891 48.3872 19.506 49.5043 19.506 50.8822C19.506 52.2602 18.3891 53.3771 17.0111 53.3771C15.6332 53.3771 14.5161 52.2602 14.5161 50.8822C14.5161 49.5043 15.6332 48.3872 17.0111 48.3872Z" fill="#434C5E"/>
<path d="M31.5272 48.3872C32.9052 48.3872 34.0221 49.5043 34.0221 50.8822C34.0221 52.2602 32.9052 53.3771 31.5272 53.3771C30.1493 53.3771 29.0322 52.2602 29.0322 50.8822C29.0322 49.5043 30.1493 48.3872 31.5272 48.3872Z" fill="#434C5E"/>
<path d="M41.2044 48.3872C42.5824 48.3872 43.6994 49.5043 43.6994 50.8822C43.6994 52.2602 42.5824 53.3771 41.2044 53.3771C39.8265 53.3771 38.7095 52.2602 38.7095 50.8822C38.7095 49.5043 39.8265 48.3872 41.2044 48.3872Z" fill="#434C5E"/>
<path d="M46.0433 48.3872C47.4213 48.3872 48.5383 49.5043 48.5383 50.8822C48.5383 52.2602 47.4213 53.3771 46.0433 53.3771C44.6654 53.3771 43.5483 52.2602 43.5483 50.8822C43.5483 49.5043 44.6654 48.3872 46.0433 48.3872Z" fill="#434C5E"/>
<path d="M50.8819 48.3872C52.2599 48.3872 53.3769 49.5043 53.3769 50.8822C53.3769 52.2602 52.2599 53.3771 50.8819 53.3771C49.504 53.3771 48.387 52.2602 48.387 50.8822C48.387 49.5043 49.504 48.3872 50.8819 48.3872Z" fill="#434C5E"/>
<path d="M60.5594 48.3872C61.9374 48.3872 63.0544 49.5043 63.0544 50.8822C63.0544 52.2602 61.9374 53.3771 60.5594 53.3771C59.1815 53.3771 58.0645 52.2602 58.0645 50.8822C58.0645 49.5043 59.1815 48.3872 60.5594 48.3872Z" fill="#434C5E"/>
<path d="M65.398 48.3872C66.776 48.3872 67.893 49.5043 67.893 50.8822C67.893 52.2602 66.776 53.3771 65.398 53.3771C64.0201 53.3771 62.9031 52.2602 62.9031 50.8822C62.9031 49.5043 64.0201 48.3872 65.398 48.3872Z" fill="#434C5E"/>
<path d="M70.2369 48.3872C71.6149 48.3872 72.7319 49.5043 72.7319 50.8822C72.7319 52.2602 71.6149 53.3771 70.2369 53.3771C68.859 53.3771 67.7419 52.2602 67.7419 50.8822C67.7419 49.5043 68.859 48.3872 70.2369 48.3872Z" fill="#434C5E"/>
<path d="M79.9141 48.3872C81.2921 48.3872 82.4091 49.5043 82.4091 50.8822C82.4091 52.2602 81.2921 53.3771 79.9141 53.3771C78.5362 53.3771 77.4192 52.2602 77.4192 50.8822C77.4192 49.5043 78.5362 48.3872 79.9141 48.3872Z" fill="#434C5E"/>
<path d="M94.4303 48.3872C95.8082 48.3872 96.9252 49.5043 96.9252 50.8822C96.9252 52.2602 95.8082 53.3771 94.4303 53.3771C93.0523 53.3771 91.9353 52.2602 91.9353 50.8822C91.9353 49.5043 93.0523 48.3872 94.4303 48.3872Z" fill="#434C5E"/>
<path d="M99.2691 48.3872C100.647 48.3872 101.764 49.5043 101.764 50.8822C101.764 52.2602 100.647 53.3771 99.2691 53.3771C97.8912 53.3771 96.7742 52.2602 96.7742 50.8822C96.7742 49.5043 97.8912 48.3872 99.2691 48.3872Z" fill="#434C5E"/>
<path d="M104.108 48.3872C105.486 48.3872 106.603 49.5043 106.603 50.8822C106.603 52.2602 105.486 53.3771 104.108 53.3771C102.73 53.3771 101.613 52.2602 101.613 50.8822C101.613 49.5043 102.73 48.3872 104.108 48.3872Z" fill="#434C5E"/>
<path d="M113.785 48.3872C115.163 48.3872 116.28 49.5043 116.28 50.8822C116.28 52.2602 115.163 53.3771 113.785 53.3771C112.407 53.3771 111.29 52.2602 111.29 50.8822C111.29 49.5043 112.407 48.3872 113.785 48.3872Z" fill="#434C5E"/>
<path d="M118.624 48.3872C120.002 48.3872 121.119 49.5043 121.119 50.8822C121.119 52.2602 120.002 53.3771 118.624 53.3771C117.246 53.3771 116.129 52.2602 116.129 50.8822C116.129 49.5043 117.246 48.3872 118.624 48.3872Z" fill="#434C5E"/>
<path d="M123.462 48.3872C124.84 48.3872 125.957 49.5043 125.957 50.8822C125.957 52.2602 124.84 53.3771 123.462 53.3771C122.085 53.3771 120.968 52.2602 120.968 50.8822C120.968 49.5043 122.085 48.3872 123.462 48.3872Z" fill="#434C5E"/>
<path d="M128.301 48.3872C129.679 48.3872 130.796 49.5043 130.796 50.8822C130.796 52.2602 129.679 53.3771 128.301 53.3771C126.923 53.3771 125.806 52.2602 125.806 50.8822C125.806 49.5043 126.923 48.3872 128.301 48.3872Z" fill="#434C5E"/>
<path d="M133.14 48.3872C134.518 48.3872 135.635 49.5043 135.635 50.8822C135.635 52.2602 134.518 53.3771 133.14 53.3771C131.762 53.3771 130.645 52.2602 130.645 50.8822C130.645 49.5043 131.762 48.3872 133.14 48.3872Z" fill="#434C5E"/>
<path d="M142.817 48.3872C144.195 48.3872 145.312 49.5043 145.312 50.8822C145.312 52.2602 144.195 53.3771 142.817 53.3771C141.44 53.3771 140.323 52.2602 140.323 50.8822C140.323 49.5043 141.44 48.3872 142.817 48.3872Z" fill="#434C5E"/>
<path d="M12.1722 53.2261C13.5502 53.2261 14.6672 54.3431 14.6672 55.721C14.6672 57.099 13.5502 58.216 12.1722 58.216C10.7943 58.216 9.67725 57.099 9.67725 55.721C9.67725 54.3431 10.7943 53.2261 12.1722 53.2261Z" fill="#434C5E"/>
<path d="M26.6883 53.2261C28.0663 53.2261 29.1833 54.3431 29.1833 55.721C29.1833 57.099 28.0663 58.216 26.6883 58.216C25.3104 58.216 24.1934 57.099 24.1934 55.721C24.1934 54.3431 25.3104 53.2261 26.6883 53.2261Z" fill="#434C5E"/>
<path d="M36.3658 53.2261C37.7438 53.2261 38.8608 54.3431 38.8608 55.721C38.8608 57.099 37.7438 58.216 36.3658 58.216C34.9879 58.216 33.8708 57.099 33.8708 55.721C33.8708 54.3431 34.9879 53.2261 36.3658 53.2261Z" fill="#434C5E"/>
<path d="M41.2044 53.2261C42.5824 53.2261 43.6994 54.3431 43.6994 55.721C43.6994 57.099 42.5824 58.216 41.2044 58.216C39.8265 58.216 38.7095 57.099 38.7095 55.721C38.7095 54.3431 39.8265 53.2261 41.2044 53.2261Z" fill="#434C5E"/>
<path d="M46.0433 53.2261C47.4213 53.2261 48.5383 54.3431 48.5383 55.721C48.5383 57.099 47.4213 58.216 46.0433 58.216C44.6654 58.216 43.5483 57.099 43.5483 55.721C43.5483 54.3431 44.6654 53.2261 46.0433 53.2261Z" fill="#434C5E"/>
<path d="M50.8819 53.2261C52.2599 53.2261 53.3769 54.3431 53.3769 55.721C53.3769 57.099 52.2599 58.216 50.8819 58.216C49.504 58.216 48.387 57.099 48.387 55.721C48.387 54.3431 49.504 53.2261 50.8819 53.2261Z" fill="#434C5E"/>
<path d="M55.7205 53.2261C57.0985 53.2261 58.2155 54.3431 58.2155 55.721C58.2155 57.099 57.0985 58.216 55.7205 58.216C54.3426 58.216 53.2256 57.099 53.2256 55.721C53.2256 54.3431 54.3426 53.2261 55.7205 53.2261Z" fill="#434C5E"/>
<path d="M60.5594 53.2261C61.9374 53.2261 63.0544 54.3431 63.0544 55.721C63.0544 57.099 61.9374 58.216 60.5594 58.216C59.1815 58.216 58.0645 57.099 58.0645 55.721C58.0645 54.3431 59.1815 53.2261 60.5594 53.2261Z" fill="#434C5E"/>
<path d="M79.9141 53.2261C81.2921 53.2261 82.4091 54.3431 82.4091 55.721C82.4091 57.099 81.2921 58.216 79.9141 58.216C78.5362 58.216 77.4192 57.099 77.4192 55.721C77.4192 54.3431 78.5362 53.2261 79.9141 53.2261Z" fill="#434C5E"/>
<path d="M84.7528 53.2261C86.1308 53.2261 87.2477 54.3431 87.2477 55.721C87.2477 57.099 86.1308 58.216 84.7528 58.216C83.3749 58.216 82.2578 57.099 82.2578 55.721C82.2578 54.3431 83.3749 53.2261 84.7528 53.2261Z" fill="#434C5E"/>
<path d="M108.946 53.2261C110.324 53.2261 111.441 54.3431 111.441 55.721C111.441 57.099 110.324 58.216 108.946 58.216C107.568 58.216 106.451 57.099 106.451 55.721C106.451 54.3431 107.568 53.2261 108.946 53.2261Z" fill="#434C5E"/>
<path d="M113.785 53.2261C115.163 53.2261 116.28 54.3431 116.28 55.721C116.28 57.099 115.163 58.216 113.785 58.216C112.407 58.216 111.29 57.099 111.29 55.721C111.29 54.3431 112.407 53.2261 113.785 53.2261Z" fill="#434C5E"/>
<path d="M128.301 53.2261C129.679 53.2261 130.796 54.3431 130.796 55.721C130.796 57.099 129.679 58.216 128.301 58.216C126.923 58.216 125.806 57.099 125.806 55.721C125.806 54.3431 126.923 53.2261 128.301 53.2261Z" fill="#434C5E"/>
<path d="M133.14 53.2261C134.518 53.2261 135.635 54.3431 135.635 55.721C135.635 57.099 134.518 58.216 133.14 58.216C131.762 58.216 130.645 57.099 130.645 55.721C130.645 54.3431 131.762 53.2261 133.14 53.2261Z" fill="#434C5E"/>
<path d="M7.33358 58.0645C8.71157 58.0645 9.82854 59.1815 9.82854 60.5594C9.82854 61.9374 8.71157 63.0544 7.33358 63.0544C5.95567 63.0544 4.83862 61.9374 4.83862 60.5594C4.83862 59.1815 5.95567 58.0645 7.33358 58.0645Z" fill="#434C5E"/>
<path d="M12.1724 58.0645C13.5504 58.0645 14.6674 59.1815 14.6674 60.5594C14.6674 61.9374 13.5504 63.0544 12.1724 63.0544C10.7945 63.0544 9.67749 61.9374 9.67749 60.5594C9.67749 59.1815 10.7945 58.0645 12.1724 58.0645Z" fill="#434C5E"/>
<path d="M21.8497 58.0645C23.2277 58.0645 24.3447 59.1815 24.3447 60.5594C24.3447 61.9374 23.2277 63.0544 21.8497 63.0544C20.4718 63.0544 19.3547 61.9374 19.3547 60.5594C19.3547 59.1815 20.4718 58.0645 21.8497 58.0645Z" fill="#434C5E"/>
<path d="M41.2047 58.0645C42.5827 58.0645 43.6996 59.1815 43.6996 60.5594C43.6996 61.9374 42.5827 63.0544 41.2047 63.0544C39.8268 63.0544 38.7097 61.9374 38.7097 60.5594C38.7097 59.1815 39.8268 58.0645 41.2047 58.0645Z" fill="#434C5E"/>
<path d="M50.8819 58.0645C52.2599 58.0645 53.3769 59.1815 53.3769 60.5594C53.3769 61.9374 52.2599 63.0544 50.8819 63.0544C49.504 63.0544 48.387 61.9374 48.387 60.5594C48.387 59.1815 49.504 58.0645 50.8819 58.0645Z" fill="#434C5E"/>
<path d="M55.7208 58.0645C57.0988 58.0645 58.2157 59.1815 58.2157 60.5594C58.2157 61.9374 57.0988 63.0544 55.7208 63.0544C54.3429 63.0544 53.2258 61.9374 53.2258 60.5594C53.2258 59.1815 54.3429 58.0645 55.7208 58.0645Z" fill="#434C5E"/>
<path d="M75.0755 58.0645C76.4535 58.0645 77.5705 59.1815 77.5705 60.5594C77.5705 61.9374 76.4535 63.0544 75.0755 63.0544C73.6976 63.0544 72.5806 61.9374 72.5806 60.5594C72.5806 59.1815 73.6976 58.0645 75.0755 58.0645Z" fill="#434C5E"/>
<path d="M84.753 58.0645C86.131 58.0645 87.248 59.1815 87.248 60.5594C87.248 61.9374 86.131 63.0544 84.753 63.0544C83.3751 63.0544 82.2581 61.9374 82.2581 60.5594C82.2581 59.1815 83.3751 58.0645 84.753 58.0645Z" fill="#434C5E"/>
<path d="M108.947 58.0645C110.325 58.0645 111.442 59.1815 111.442 60.5594C111.442 61.9374 110.325 63.0544 108.947 63.0544C107.569 63.0544 106.452 61.9374 106.452 60.5594C106.452 59.1815 107.569 58.0645 108.947 58.0645Z" fill="#434C5E"/>
<path d="M113.785 58.0645C115.163 58.0645 116.28 59.1815 116.28 60.5594C116.28 61.9374 115.163 63.0544 113.785 63.0544C112.407 63.0544 111.29 61.9374 111.29 60.5594C111.29 59.1815 112.407 58.0645 113.785 58.0645Z" fill="#434C5E"/>
<path d="M123.463 58.0645C124.841 58.0645 125.958 59.1815 125.958 60.5594C125.958 61.9374 124.841 63.0544 123.463 63.0544C122.085 63.0544 120.968 61.9374 120.968 60.5594C120.968 59.1815 122.085 58.0645 123.463 58.0645Z" fill="#434C5E"/>
<path d="M128.301 58.0645C129.679 58.0645 130.796 59.1815 130.796 60.5594C130.796 61.9374 129.679 63.0544 128.301 63.0544C126.923 63.0544 125.806 61.9374 125.806 60.5594C125.806 59.1815 126.923 58.0645 128.301 58.0645Z" fill="#434C5E"/>
<path d="M137.979 58.0645C139.357 58.0645 140.474 59.1815 140.474 60.5594C140.474 61.9374 139.357 63.0544 137.979 63.0544C136.601 63.0544 135.484 61.9374 135.484 60.5594C135.484 59.1815 136.601 58.0645 137.979 58.0645Z" fill="#434C5E"/>
<path d="M21.8497 62.9033C23.2277 62.9033 24.3447 64.0204 24.3447 65.3983C24.3447 66.7763 23.2277 67.8932 21.8497 67.8932C20.4718 67.8932 19.3547 66.7763 19.3547 65.3983C19.3547 64.0204 20.4718 62.9033 21.8497 62.9033Z" fill="#434C5E"/>
<path d="M26.6883 62.9033C28.0663 62.9033 29.1833 64.0204 29.1833 65.3983C29.1833 66.7763 28.0663 67.8932 26.6883 67.8932C25.3104 67.8932 24.1934 66.7763 24.1934 65.3983C24.1934 64.0204 25.3104 62.9033 26.6883 62.9033Z" fill="#434C5E"/>
<path d="M31.5272 62.9033C32.9052 62.9033 34.0221 64.0204 34.0221 65.3983C34.0221 66.7763 32.9052 67.8932 31.5272 67.8932C30.1493 67.8932 29.0322 66.7763 29.0322 65.3983C29.0322 64.0204 30.1493 62.9033 31.5272 62.9033Z" fill="#434C5E"/>
<path d="M36.3658 62.9033C37.7438 62.9033 38.8608 64.0204 38.8608 65.3983C38.8608 66.7763 37.7438 67.8932 36.3658 67.8932C34.9879 67.8932 33.8708 66.7763 33.8708 65.3983C33.8708 64.0204 34.9879 62.9033 36.3658 62.9033Z" fill="#434C5E"/>
<path d="M50.8819 62.9033C52.2599 62.9033 53.3769 64.0204 53.3769 65.3983C53.3769 66.7763 52.2599 67.8932 50.8819 67.8932C49.504 67.8932 48.387 66.7763 48.387 65.3983C48.387 64.0204 49.504 62.9033 50.8819 62.9033Z" fill="#434C5E"/>
<path d="M55.7205 62.9033C57.0985 62.9033 58.2155 64.0204 58.2155 65.3983C58.2155 66.7763 57.0985 67.8932 55.7205 67.8932C54.3426 67.8932 53.2256 66.7763 53.2256 65.3983C53.2256 64.0204 54.3426 62.9033 55.7205 62.9033Z" fill="#434C5E"/>
<path d="M65.398 62.9033C66.776 62.9033 67.893 64.0204 67.893 65.3983C67.893 66.7763 66.776 67.8932 65.398 67.8932C64.0201 67.8932 62.9031 66.7763 62.9031 65.3983C62.9031 64.0204 64.0201 62.9033 65.398 62.9033Z" fill="#434C5E"/>
<path d="M70.2369 62.9033C71.6149 62.9033 72.7319 64.0204 72.7319 65.3983C72.7319 66.7763 71.6149 67.8932 70.2369 67.8932C68.859 67.8932 67.7419 66.7763 67.7419 65.3983C67.7419 64.0204 68.859 62.9033 70.2369 62.9033Z" fill="#434C5E"/>
<path d="M84.753 62.9033C86.131 62.9033 87.248 64.0204 87.248 65.3983C87.248 66.7763 86.131 67.8932 84.753 67.8932C83.3751 67.8932 82.2581 66.7763 82.2581 65.3983C82.2581 64.0204 83.3751 62.9033 84.753 62.9033Z" fill="#434C5E"/>
<path d="M94.4303 62.9033C95.8082 62.9033 96.9252 64.0204 96.9252 65.3983C96.9252 66.7763 95.8082 67.8932 94.4303 67.8932C93.0523 67.8932 91.9353 66.7763 91.9353 65.3983C91.9353 64.0204 93.0523 62.9033 94.4303 62.9033Z" fill="#434C5E"/>
<path d="M104.108 62.9033C105.486 62.9033 106.603 64.0204 106.603 65.3983C106.603 66.7763 105.486 67.8932 104.108 67.8932C102.73 67.8932 101.613 66.7763 101.613 65.3983C101.613 64.0204 102.73 62.9033 104.108 62.9033Z" fill="#434C5E"/>
<path d="M108.946 62.9033C110.324 62.9033 111.441 64.0204 111.441 65.3983C111.441 66.7763 110.324 67.8932 108.946 67.8932C107.568 67.8932 106.451 66.7763 106.451 65.3983C106.451 64.0204 107.568 62.9033 108.946 62.9033Z" fill="#434C5E"/>
<path d="M118.624 62.9033C120.002 62.9033 121.119 64.0204 121.119 65.3983C121.119 66.7763 120.002 67.8932 118.624 67.8932C117.246 67.8932 116.129 66.7763 116.129 65.3983C116.129 64.0204 117.246 62.9033 118.624 62.9033Z" fill="#434C5E"/>
<path d="M128.301 62.9033C129.679 62.9033 130.796 64.0204 130.796 65.3983C130.796 66.7763 129.679 67.8932 128.301 67.8932C126.923 67.8932 125.806 66.7763 125.806 65.3983C125.806 64.0204 126.923 62.9033 128.301 62.9033Z" fill="#434C5E"/>
<path d="M133.14 62.9033C134.518 62.9033 135.635 64.0204 135.635 65.3983C135.635 66.7763 134.518 67.8932 133.14 67.8932C131.762 67.8932 130.645 66.7763 130.645 65.3983C130.645 64.0204 131.762 62.9033 133.14 62.9033Z" fill="#434C5E"/>
<path d="M137.979 62.9033C139.357 62.9033 140.474 64.0204 140.474 65.3983C140.474 66.7763 139.357 67.8932 137.979 67.8932C136.601 67.8932 135.484 66.7763 135.484 65.3983C135.484 64.0204 136.601 62.9033 137.979 62.9033Z" fill="#434C5E"/>
<path d="M142.817 62.9033C144.195 62.9033 145.312 64.0204 145.312 65.3983C145.312 66.7763 144.195 67.8932 142.817 67.8932C141.44 67.8932 140.323 66.7763 140.323 65.3983C140.323 64.0204 141.44 62.9033 142.817 62.9033Z" fill="#434C5E"/>
<path d="M17.0111 67.7422C18.3891 67.7422 19.506 68.8592 19.506 70.2371C19.506 71.6151 18.3891 72.7321 17.0111 72.7321C15.6332 72.7321 14.5161 71.6151 14.5161 70.2371C14.5161 68.8592 15.6332 67.7422 17.0111 67.7422Z" fill="#434C5E"/>
<path d="M41.2044 67.7422C42.5824 67.7422 43.6994 68.8592 43.6994 70.2371C43.6994 71.6151 42.5824 72.7321 41.2044 72.7321C39.8265 72.7321 38.7095 71.6151 38.7095 70.2371C38.7095 68.8592 39.8265 67.7422 41.2044 67.7422Z" fill="#434C5E"/>
<path d="M46.0433 67.7422C47.4213 67.7422 48.5383 68.8592 48.5383 70.2371C48.5383 71.6151 47.4213 72.7321 46.0433 72.7321C44.6654 72.7321 43.5483 71.6151 43.5483 70.2371C43.5483 68.8592 44.6654 67.7422 46.0433 67.7422Z" fill="#434C5E"/>
<path d="M99.2691 67.7422C100.647 67.7422 101.764 68.8592 101.764 70.2371C101.764 71.6151 100.647 72.7321 99.2691 72.7321C97.8912 72.7321 96.7742 71.6151 96.7742 70.2371C96.7742 68.8592 97.8912 67.7422 99.2691 67.7422Z" fill="#434C5E"/>
<path d="M104.108 67.7422C105.486 67.7422 106.603 68.8592 106.603 70.2371C106.603 71.6151 105.486 72.7321 104.108 72.7321C102.73 72.7321 101.613 71.6151 101.613 70.2371C101.613 68.8592 102.73 67.7422 104.108 67.7422Z" fill="#434C5E"/>
<path d="M108.946 67.7422C110.324 67.7422 111.441 68.8592 111.441 70.2371C111.441 71.6151 110.324 72.7321 108.946 72.7321C107.568 72.7321 106.451 71.6151 106.451 70.2371C106.451 68.8592 107.568 67.7422 108.946 67.7422Z" fill="#434C5E"/>
<path d="M113.785 67.7422C115.163 67.7422 116.28 68.8592 116.28 70.2371C116.28 71.6151 115.163 72.7321 113.785 72.7321C112.407 72.7321 111.29 71.6151 111.29 70.2371C111.29 68.8592 112.407 67.7422 113.785 67.7422Z" fill="#434C5E"/>
<path d="M123.462 67.7422C124.84 67.7422 125.957 68.8592 125.957 70.2371C125.957 71.6151 124.84 72.7321 123.462 72.7321C122.085 72.7321 120.968 71.6151 120.968 70.2371C120.968 68.8592 122.085 67.7422 123.462 67.7422Z" fill="#434C5E"/>
<path d="M128.301 67.7422C129.679 67.7422 130.796 68.8592 130.796 70.2371C130.796 71.6151 129.679 72.7321 128.301 72.7321C126.923 72.7321 125.806 71.6151 125.806 70.2371C125.806 68.8592 126.923 67.7422 128.301 67.7422Z" fill="#434C5E"/>
<path d="M137.979 67.7422C139.357 67.7422 140.474 68.8592 140.474 70.2371C140.474 71.6151 139.357 72.7321 137.979 72.7321C136.601 72.7321 135.484 71.6151 135.484 70.2371C135.484 68.8592 136.601 67.7422 137.979 67.7422Z" fill="#434C5E"/>
<path d="M142.817 67.7422C144.195 67.7422 145.312 68.8592 145.312 70.2371C145.312 71.6151 144.195 72.7321 142.817 72.7321C141.44 72.7321 140.323 71.6151 140.323 70.2371C140.323 68.8592 141.44 67.7422 142.817 67.7422Z" fill="#434C5E"/>
<path d="M26.6886 72.5806C28.0665 72.5806 29.1835 73.6976 29.1835 75.0755C29.1835 76.4535 28.0665 77.5705 26.6886 77.5705C25.3106 77.5705 24.1936 76.4535 24.1936 75.0755C24.1936 73.6976 25.3106 72.5806 26.6886 72.5806Z" fill="#434C5E"/>
<path d="M36.3658 72.5806C37.7438 72.5806 38.8608 73.6976 38.8608 75.0755C38.8608 76.4535 37.7438 77.5705 36.3658 77.5705C34.9879 77.5705 33.8708 76.4535 33.8708 75.0755C33.8708 73.6976 34.9879 72.5806 36.3658 72.5806Z" fill="#434C5E"/>
<path d="M41.2047 72.5806C42.5827 72.5806 43.6996 73.6976 43.6996 75.0755C43.6996 76.4535 42.5827 77.5705 41.2047 77.5705C39.8268 77.5705 38.7097 76.4535 38.7097 75.0755C38.7097 73.6976 39.8268 72.5806 41.2047 72.5806Z" fill="#434C5E"/>
<path d="M46.0433 72.5806C47.4213 72.5806 48.5383 73.6976 48.5383 75.0755C48.5383 76.4535 47.4213 77.5705 46.0433 77.5705C44.6654 77.5705 43.5483 76.4535 43.5483 75.0755C43.5483 73.6976 44.6654 72.5806 46.0433 72.5806Z" fill="#434C5E"/>
<path d="M50.8819 72.5806C52.2599 72.5806 53.3769 73.6976 53.3769 75.0755C53.3769 76.4535 52.2599 77.5705 50.8819 77.5705C49.504 77.5705 48.387 76.4535 48.387 75.0755C48.387 73.6976 49.504 72.5806 50.8819 72.5806Z" fill="#434C5E"/>
<path d="M55.7208 72.5806C57.0988 72.5806 58.2157 73.6976 58.2157 75.0755C58.2157 76.4535 57.0988 77.5705 55.7208 77.5705C54.3429 77.5705 53.2258 76.4535 53.2258 75.0755C53.2258 73.6976 54.3429 72.5806 55.7208 72.5806Z" fill="#434C5E"/>
<path d="M60.5594 72.5806C61.9374 72.5806 63.0544 73.6976 63.0544 75.0755C63.0544 76.4535 61.9374 77.5705 60.5594 77.5705C59.1815 77.5705 58.0645 76.4535 58.0645 75.0755C58.0645 73.6976 59.1815 72.5806 60.5594 72.5806Z" fill="#434C5E"/>
<path d="M65.3983 72.5806C66.7763 72.5806 67.8932 73.6976 67.8932 75.0755C67.8932 76.4535 66.7763 77.5705 65.3983 77.5705C64.0204 77.5705 62.9033 76.4535 62.9033 75.0755C62.9033 73.6976 64.0204 72.5806 65.3983 72.5806Z" fill="#434C5E"/>
<path d="M75.0755 72.5806C76.4535 72.5806 77.5705 73.6976 77.5705 75.0755C77.5705 76.4535 76.4535 77.5705 75.0755 77.5705C73.6976 77.5705 72.5806 76.4535 72.5806 75.0755C72.5806 73.6976 73.6976 72.5806 75.0755 72.5806Z" fill="#434C5E"/>
<path d="M84.753 72.5806C86.131 72.5806 87.248 73.6976 87.248 75.0755C87.248 76.4535 86.131 77.5705 84.753 77.5705C83.3751 77.5705 82.2581 76.4535 82.2581 75.0755C82.2581 73.6976 83.3751 72.5806 84.753 72.5806Z" fill="#434C5E"/>
<path d="M104.108 72.5806C105.486 72.5806 106.603 73.6976 106.603 75.0755C106.603 76.4535 105.486 77.5705 104.108 77.5705C102.73 77.5705 101.613 76.4535 101.613 75.0755C101.613 73.6976 102.73 72.5806 104.108 72.5806Z" fill="#434C5E"/>
<path d="M118.624 72.5806C120.002 72.5806 121.119 73.6976 121.119 75.0755C121.119 76.4535 120.002 77.5705 118.624 77.5705C117.246 77.5705 116.129 76.4535 116.129 75.0755C116.129 73.6976 117.246 72.5806 118.624 72.5806Z" fill="#434C5E"/>
<path d="M21.8497 77.4194C23.2277 77.4194 24.3447 78.5365 24.3447 79.9144C24.3447 81.2924 23.2277 82.4094 21.8497 82.4094C20.4718 82.4094 19.3547 81.2924 19.3547 79.9144C19.3547 78.5365 20.4718 77.4194 21.8497 77.4194Z" fill="#434C5E"/>
<path d="M26.6883 77.4194C28.0663 77.4194 29.1833 78.5365 29.1833 79.9144C29.1833 81.2924 28.0663 82.4094 26.6883 82.4094C25.3104 82.4094 24.1934 81.2924 24.1934 79.9144C24.1934 78.5365 25.3104 77.4194 26.6883 77.4194Z" fill="#434C5E"/>
<path d="M41.2044 77.4194C42.5824 77.4194 43.6994 78.5365 43.6994 79.9144C43.6994 81.2924 42.5824 82.4094 41.2044 82.4094C39.8265 82.4094 38.7095 81.2924 38.7095 79.9144C38.7095 78.5365 39.8265 77.4194 41.2044 77.4194Z" fill="#434C5E"/>
<path d="M55.7205 77.4194C57.0985 77.4194 58.2155 78.5365 58.2155 79.9144C58.2155 81.2924 57.0985 82.4094 55.7205 82.4094C54.3426 82.4094 53.2256 81.2924 53.2256 79.9144C53.2256 78.5365 54.3426 77.4194 55.7205 77.4194Z" fill="#434C5E"/>
<path d="M65.398 77.4194C66.776 77.4194 67.893 78.5365 67.893 79.9144C67.893 81.2924 66.776 82.4094 65.398 82.4094C64.0201 82.4094 62.9031 81.2924 62.9031 79.9144C62.9031 78.5365 64.0201 77.4194 65.398 77.4194Z" fill="#434C5E"/>
<path d="M70.2367 77.4194C71.6146 77.4194 72.7316 78.5365 72.7316 79.9144C72.7316 81.2924 71.6146 82.4094 70.2367 82.4094C68.8587 82.4094 67.7417 81.2924 67.7417 79.9144C67.7417 78.5365 68.8587 77.4194 70.2367 77.4194Z" fill="#434C5E"/>
<path d="M89.5916 77.4194C90.9696 77.4194 92.0866 78.5365 92.0866 79.9144C92.0866 81.2924 90.9696 82.4094 89.5916 82.4094C88.2137 82.4094 87.0967 81.2924 87.0967 79.9144C87.0967 78.5365 88.2137 77.4194 89.5916 77.4194Z" fill="#434C5E"/>
<path d="M94.4303 77.4194C95.8082 77.4194 96.9252 78.5365 96.9252 79.9144C96.9252 81.2924 95.8082 82.4094 94.4303 82.4094C93.0523 82.4094 91.9353 81.2924 91.9353 79.9144C91.9353 78.5365 93.0523 77.4194 94.4303 77.4194Z" fill="#434C5E"/>
<path d="M99.2691 77.4194C100.647 77.4194 101.764 78.5365 101.764 79.9144C101.764 81.2924 100.647 82.4094 99.2691 82.4094C97.8912 82.4094 96.7742 81.2924 96.7742 79.9144C96.7742 78.5365 97.8912 77.4194 99.2691 77.4194Z" fill="#434C5E"/>
<path d="M104.108 77.4194C105.486 77.4194 106.603 78.5365 106.603 79.9144C106.603 81.2924 105.486 82.4094 104.108 82.4094C102.73 82.4094 101.613 81.2924 101.613 79.9144C101.613 78.5365 102.73 77.4194 104.108 77.4194Z" fill="#434C5E"/>
<path d="M123.462 77.4194C124.84 77.4194 125.957 78.5365 125.957 79.9144C125.957 81.2924 124.84 82.4094 123.462 82.4094C122.085 82.4094 120.968 81.2924 120.968 79.9144C120.968 78.5365 122.085 77.4194 123.462 77.4194Z" fill="#434C5E"/>
<path d="M128.301 77.4194C129.679 77.4194 130.796 78.5365 130.796 79.9144C130.796 81.2924 129.679 82.4094 128.301 82.4094C126.923 82.4094 125.806 81.2924 125.806 79.9144C125.806 78.5365 126.923 77.4194 128.301 77.4194Z" fill="#434C5E"/>
<path d="M7.33383 82.2578C8.71181 82.2578 9.82879 83.3749 9.82879 84.7528C9.82879 86.1308 8.71181 87.2477 7.33383 87.2477C5.95591 87.2477 4.83887 86.1308 4.83887 84.7528C4.83887 83.3749 5.95591 82.2578 7.33383 82.2578Z" fill="#434C5E"/>
<path d="M12.1724 82.2578C13.5504 82.2578 14.6674 83.3749 14.6674 84.7528C14.6674 86.1308 13.5504 87.2477 12.1724 87.2477C10.7945 87.2477 9.67749 86.1308 9.67749 84.7528C9.67749 83.3749 10.7945 82.2578 12.1724 82.2578Z" fill="#434C5E"/>
<path d="M26.6886 82.2578C28.0665 82.2578 29.1835 83.3749 29.1835 84.7528C29.1835 86.1308 28.0665 87.2477 26.6886 87.2477C25.3106 87.2477 24.1936 86.1308 24.1936 84.7528C24.1936 83.3749 25.3106 82.2578 26.6886 82.2578Z" fill="#434C5E"/>
<path d="M36.3661 82.2578C37.744 82.2578 38.861 83.3749 38.861 84.7528C38.861 86.1308 37.744 87.2477 36.3661 87.2477C34.9881 87.2477 33.8711 86.1308 33.8711 84.7528C33.8711 83.3749 34.9881 82.2578 36.3661 82.2578Z" fill="#434C5E"/>
<path d="M41.2047 82.2578C42.5827 82.2578 43.6996 83.3749 43.6996 84.7528C43.6996 86.1308 42.5827 87.2477 41.2047 87.2477C39.8268 87.2477 38.7097 86.1308 38.7097 84.7528C38.7097 83.3749 39.8268 82.2578 41.2047 82.2578Z" fill="#434C5E"/>
<path d="M60.5594 82.2578C61.9374 82.2578 63.0544 83.3749 63.0544 84.7528C63.0544 86.1308 61.9374 87.2477 60.5594 87.2477C59.1815 87.2477 58.0645 86.1308 58.0645 84.7528C58.0645 83.3749 59.1815 82.2578 60.5594 82.2578Z" fill="#434C5E"/>
<path d="M75.0758 82.2578C76.4538 82.2578 77.5707 83.3749 77.5707 84.7528C77.5707 86.1308 76.4538 87.2477 75.0758 87.2477C73.6979 87.2477 72.5808 86.1308 72.5808 84.7528C72.5808 83.3749 73.6979 82.2578 75.0758 82.2578Z" fill="#434C5E"/>
<path d="M89.5919 82.2578C90.9699 82.2578 92.0868 83.3749 92.0868 84.7528C92.0868 86.1308 90.9699 87.2477 89.5919 87.2477C88.214 87.2477 87.0969 86.1308 87.0969 84.7528C87.0969 83.3749 88.214 82.2578 89.5919 82.2578Z" fill="#434C5E"/>
<path d="M104.108 82.2578C105.486 82.2578 106.603 83.3749 106.603 84.7528C106.603 86.1308 105.486 87.2477 104.108 87.2477C102.73 87.2477 101.613 86.1308 101.613 84.7528C101.613 83.3749 102.73 82.2578 104.108 82.2578Z" fill="#434C5E"/>
<path d="M108.947 82.2578C110.325 82.2578 111.442 83.3749 111.442 84.7528C111.442 86.1308 110.325 87.2477 108.947 87.2477C107.569 87.2477 106.452 86.1308 106.452 84.7528C106.452 83.3749 107.569 82.2578 108.947 82.2578Z" fill="#434C5E"/>
<path d="M118.624 82.2578C120.002 82.2578 121.119 83.3749 121.119 84.7528C121.119 86.1308 120.002 87.2477 118.624 87.2477C117.246 87.2477 116.129 86.1308 116.129 84.7528C116.129 83.3749 117.246 82.2578 118.624 82.2578Z" fill="#434C5E"/>
<path d="M128.301 82.2578C129.679 82.2578 130.796 83.3749 130.796 84.7528C130.796 86.1308 129.679 87.2477 128.301 87.2477C126.923 87.2477 125.806 86.1308 125.806 84.7528C125.806 83.3749 126.923 82.2578 128.301 82.2578Z" fill="#434C5E"/>
<path d="M133.14 82.2578C134.518 82.2578 135.635 83.3749 135.635 84.7528C135.635 86.1308 134.518 87.2477 133.14 87.2477C131.762 87.2477 130.645 86.1308 130.645 84.7528C130.645 83.3749 131.762 82.2578 133.14 82.2578Z" fill="#434C5E"/>
<path d="M137.979 82.2578C139.357 82.2578 140.474 83.3749 140.474 84.7528C140.474 86.1308 139.357 87.2477 137.979 87.2477C136.601 87.2477 135.484 86.1308 135.484 84.7528C135.484 83.3749 136.601 82.2578 137.979 82.2578Z" fill="#434C5E"/>
<path d="M142.818 82.2578C144.196 82.2578 145.313 83.3749 145.313 84.7528C145.313 86.1308 144.196 87.2477 142.818 87.2477C141.44 87.2477 140.323 86.1308 140.323 84.7528C140.323 83.3749 141.44 82.2578 142.818 82.2578Z" fill="#434C5E"/>
<path d="M7.33358 87.0967C8.71157 87.0967 9.82854 88.2137 9.82854 89.5916C9.82854 90.9696 8.71157 92.0866 7.33358 92.0866C5.95567 92.0866 4.83862 90.9696 4.83862 89.5916C4.83862 88.2137 5.95567 87.0967 7.33358 87.0967Z" fill="#434C5E"/>
<path d="M12.1724 87.0967C13.5504 87.0967 14.6674 88.2137 14.6674 89.5916C14.6674 90.9696 13.5504 92.0866 12.1724 92.0866C10.7945 92.0866 9.67749 90.9696 9.67749 89.5916C9.67749 88.2137 10.7945 87.0967 12.1724 87.0967Z" fill="#434C5E"/>
<path d="M17.0108 87.0967C18.3888 87.0967 19.5058 88.2137 19.5058 89.5916C19.5058 90.9696 18.3888 92.0866 17.0108 92.0866C15.6329 92.0866 14.5159 90.9696 14.5159 89.5916C14.5159 88.2137 15.6329 87.0967 17.0108 87.0967Z" fill="#434C5E"/>
<path d="M31.5272 87.0967C32.9052 87.0967 34.0221 88.2137 34.0221 89.5916C34.0221 90.9696 32.9052 92.0866 31.5272 92.0866C30.1493 92.0866 29.0322 90.9696 29.0322 89.5916C29.0322 88.2137 30.1493 87.0967 31.5272 87.0967Z" fill="#434C5E"/>
<path d="M41.2047 87.0967C42.5827 87.0967 43.6996 88.2137 43.6996 89.5916C43.6996 90.9696 42.5827 92.0866 41.2047 92.0866C39.8268 92.0866 38.7097 90.9696 38.7097 89.5916C38.7097 88.2137 39.8268 87.0967 41.2047 87.0967Z" fill="#434C5E"/>
<path d="M50.8819 87.0967C52.2599 87.0967 53.3769 88.2137 53.3769 89.5916C53.3769 90.9696 52.2599 92.0866 50.8819 92.0866C49.504 92.0866 48.387 90.9696 48.387 89.5916C48.387 88.2137 49.504 87.0967 50.8819 87.0967Z" fill="#434C5E"/>
<path d="M60.5594 87.0967C61.9374 87.0967 63.0544 88.2137 63.0544 89.5916C63.0544 90.9696 61.9374 92.0866 60.5594 92.0866C59.1815 92.0866 58.0645 90.9696 58.0645 89.5916C58.0645 88.2137 59.1815 87.0967 60.5594 87.0967Z" fill="#434C5E"/>
<path d="M65.3983 87.0967C66.7763 87.0967 67.8932 88.2137 67.8932 89.5916C67.8932 90.9696 66.7763 92.0866 65.3983 92.0866C64.0204 92.0866 62.9033 90.9696 62.9033 89.5916C62.9033 88.2137 64.0204 87.0967 65.3983 87.0967Z" fill="#434C5E"/>
<path d="M70.2369 87.0967C71.6149 87.0967 72.7319 88.2137 72.7319 89.5916C72.7319 90.9696 71.6149 92.0866 70.2369 92.0866C68.859 92.0866 67.7419 90.9696 67.7419 89.5916C67.7419 88.2137 68.859 87.0967 70.2369 87.0967Z" fill="#434C5E"/>
<path d="M94.4305 87.0967C95.8085 87.0967 96.9255 88.2137 96.9255 89.5916C96.9255 90.9696 95.8085 92.0866 94.4305 92.0866C93.0526 92.0866 91.9355 90.9696 91.9355 89.5916C91.9355 88.2137 93.0526 87.0967 94.4305 87.0967Z" fill="#434C5E"/>
<path d="M99.2689 87.0967C100.647 87.0967 101.764 88.2137 101.764 89.5916C101.764 90.9696 100.647 92.0866 99.2689 92.0866C97.891 92.0866 96.7739 90.9696 96.7739 89.5916C96.7739 88.2137 97.891 87.0967 99.2689 87.0967Z" fill="#434C5E"/>
<path d="M104.108 87.0967C105.486 87.0967 106.603 88.2137 106.603 89.5916C106.603 90.9696 105.486 92.0866 104.108 92.0866C102.73 92.0866 101.613 90.9696 101.613 89.5916C101.613 88.2137 102.73 87.0967 104.108 87.0967Z" fill="#434C5E"/>
<path d="M108.947 87.0967C110.325 87.0967 111.442 88.2137 111.442 89.5916C111.442 90.9696 110.325 92.0866 108.947 92.0866C107.569 92.0866 106.452 90.9696 106.452 89.5916C106.452 88.2137 107.569 87.0967 108.947 87.0967Z" fill="#434C5E"/>
<path d="M113.785 87.0967C115.163 87.0967 116.28 88.2137 116.28 89.5916C116.28 90.9696 115.163 92.0866 113.785 92.0866C112.407 92.0866 111.29 90.9696 111.29 89.5916C111.29 88.2137 112.407 87.0967 113.785 87.0967Z" fill="#434C5E"/>
<path d="M118.624 87.0967C120.002 87.0967 121.119 88.2137 121.119 89.5916C121.119 90.9696 120.002 92.0866 118.624 92.0866C117.246 92.0866 116.129 90.9696 116.129 89.5916C116.129 88.2137 117.246 87.0967 118.624 87.0967Z" fill="#434C5E"/>
<path d="M123.463 87.0967C124.841 87.0967 125.958 88.2137 125.958 89.5916C125.958 90.9696 124.841 92.0866 123.463 92.0866C122.085 92.0866 120.968 90.9696 120.968 89.5916C120.968 88.2137 122.085 87.0967 123.463 87.0967Z" fill="#434C5E"/>
<path d="M128.301 87.0967C129.679 87.0967 130.796 88.2137 130.796 89.5916C130.796 90.9696 129.679 92.0866 128.301 92.0866C126.923 92.0866 125.806 90.9696 125.806 89.5916C125.806 88.2137 126.923 87.0967 128.301 87.0967Z" fill="#434C5E"/>
<path d="M137.979 87.0967C139.357 87.0967 140.474 88.2137 140.474 89.5916C140.474 90.9696 139.357 92.0866 137.979 92.0866C136.601 92.0866 135.484 90.9696 135.484 89.5916C135.484 88.2137 136.601 87.0967 137.979 87.0967Z" fill="#434C5E"/>
<path d="M142.817 87.0967C144.195 87.0967 145.312 88.2137 145.312 89.5916C145.312 90.9696 144.195 92.0866 142.817 92.0866C141.44 92.0866 140.323 90.9696 140.323 89.5916C140.323 88.2137 141.44 87.0967 142.817 87.0967Z" fill="#434C5E"/>
<path d="M7.33358 91.9355C8.71157 91.9355 9.82854 93.0526 9.82854 94.4305C9.82854 95.8085 8.71157 96.9255 7.33358 96.9255C5.95567 96.9255 4.83862 95.8085 4.83862 94.4305C4.83862 93.0526 5.95567 91.9355 7.33358 91.9355Z" fill="#434C5E"/>
<path d="M21.8497 91.9355C23.2277 91.9355 24.3447 93.0526 24.3447 94.4305C24.3447 95.8085 23.2277 96.9255 21.8497 96.9255C20.4718 96.9255 19.3547 95.8085 19.3547 94.4305C19.3547 93.0526 20.4718 91.9355 21.8497 91.9355Z" fill="#434C5E"/>
<path d="M26.6883 91.9355C28.0663 91.9355 29.1833 93.0526 29.1833 94.4305C29.1833 95.8085 28.0663 96.9255 26.6883 96.9255C25.3104 96.9255 24.1934 95.8085 24.1934 94.4305C24.1934 93.0526 25.3104 91.9355 26.6883 91.9355Z" fill="#434C5E"/>
<path d="M31.5272 91.9355C32.9052 91.9355 34.0221 93.0526 34.0221 94.4305C34.0221 95.8085 32.9052 96.9255 31.5272 96.9255C30.1493 96.9255 29.0322 95.8085 29.0322 94.4305C29.0322 93.0526 30.1493 91.9355 31.5272 91.9355Z" fill="#434C5E"/>
<path d="M36.3658 91.9355C37.7438 91.9355 38.8608 93.0526 38.8608 94.4305C38.8608 95.8085 37.7438 96.9255 36.3658 96.9255C34.9879 96.9255 33.8708 95.8085 33.8708 94.4305C33.8708 93.0526 34.9879 91.9355 36.3658 91.9355Z" fill="#434C5E"/>
<path d="M60.5594 91.9355C61.9374 91.9355 63.0544 93.0526 63.0544 94.4305C63.0544 95.8085 61.9374 96.9255 60.5594 96.9255C59.1815 96.9255 58.0645 95.8085 58.0645 94.4305C58.0645 93.0526 59.1815 91.9355 60.5594 91.9355Z" fill="#434C5E"/>
<path d="M65.398 91.9355C66.776 91.9355 67.893 93.0526 67.893 94.4305C67.893 95.8085 66.776 96.9255 65.398 96.9255C64.0201 96.9255 62.9031 95.8085 62.9031 94.4305C62.9031 93.0526 64.0201 91.9355 65.398 91.9355Z" fill="#434C5E"/>
<path d="M75.0755 91.9355C76.4535 91.9355 77.5705 93.0526 77.5705 94.4305C77.5705 95.8085 76.4535 96.9255 75.0755 96.9255C73.6976 96.9255 72.5806 95.8085 72.5806 94.4305C72.5806 93.0526 73.6976 91.9355 75.0755 91.9355Z" fill="#434C5E"/>
<path d="M84.7528 91.9355C86.1308 91.9355 87.2477 93.0526 87.2477 94.4305C87.2477 95.8085 86.1308 96.9255 84.7528 96.9255C83.3749 96.9255 82.2578 95.8085 82.2578 94.4305C82.2578 93.0526 83.3749 91.9355 84.7528 91.9355Z" fill="#434C5E"/>
<path d="M94.4303 91.9355C95.8082 91.9355 96.9252 93.0526 96.9252 94.4305C96.9252 95.8085 95.8082 96.9255 94.4303 96.9255C93.0523 96.9255 91.9353 95.8085 91.9353 94.4305C91.9353 93.0526 93.0523 91.9355 94.4303 91.9355Z" fill="#434C5E"/>
<path d="M104.108 91.9355C105.486 91.9355 106.603 93.0526 106.603 94.4305C106.603 95.8085 105.486 96.9255 104.108 96.9255C102.73 96.9255 101.613 95.8085 101.613 94.4305C101.613 93.0526 102.73 91.9355 104.108 91.9355Z" fill="#434C5E"/>
<path d="M113.785 91.9355C115.163 91.9355 116.28 93.0526 116.28 94.4305C116.28 95.8085 115.163 96.9255 113.785 96.9255C112.407 96.9255 111.29 95.8085 111.29 94.4305C111.29 93.0526 112.407 91.9355 113.785 91.9355Z" fill="#434C5E"/>
<path d="M7.33383 96.7739C8.71181 96.7739 9.82879 97.891 9.82879 99.2689C9.82879 100.647 8.71181 101.764 7.33383 101.764C5.95591 101.764 4.83887 100.647 4.83887 99.2689C4.83887 97.891 5.95591 96.7739 7.33383 96.7739Z" fill="#434C5E"/>
<path d="M17.0111 96.7739C18.3891 96.7739 19.506 97.891 19.506 99.2689C19.506 100.647 18.3891 101.764 17.0111 101.764C15.6332 101.764 14.5161 100.647 14.5161 99.2689C14.5161 97.891 15.6332 96.7739 17.0111 96.7739Z" fill="#434C5E"/>
<path d="M26.6886 96.7739C28.0665 96.7739 29.1835 97.891 29.1835 99.2689C29.1835 100.647 28.0665 101.764 26.6886 101.764C25.3106 101.764 24.1936 100.647 24.1936 99.2689C24.1936 97.891 25.3106 96.7739 26.6886 96.7739Z" fill="#434C5E"/>
<path d="M31.5272 96.7739C32.9052 96.7739 34.0221 97.891 34.0221 99.2689C34.0221 100.647 32.9052 101.764 31.5272 101.764C30.1493 101.764 29.0322 100.647 29.0322 99.2689C29.0322 97.891 30.1493 96.7739 31.5272 96.7739Z" fill="#434C5E"/>
<path d="M50.8819 96.7739C52.2599 96.7739 53.3769 97.891 53.3769 99.2689C53.3769 100.647 52.2599 101.764 50.8819 101.764C49.504 101.764 48.387 100.647 48.387 99.2689C48.387 97.891 49.504 96.7739 50.8819 96.7739Z" fill="#434C5E"/>
<path d="M60.5594 96.7739C61.9374 96.7739 63.0544 97.891 63.0544 99.2689C63.0544 100.647 61.9374 101.764 60.5594 101.764C59.1815 101.764 58.0645 100.647 58.0645 99.2689C58.0645 97.891 59.1815 96.7739 60.5594 96.7739Z" fill="#434C5E"/>
<path d="M65.3983 96.7739C66.7763 96.7739 67.8932 97.891 67.8932 99.2689C67.8932 100.647 66.7763 101.764 65.3983 101.764C64.0204 101.764 62.9033 100.647 62.9033 99.2689C62.9033 97.891 64.0204 96.7739 65.3983 96.7739Z" fill="#434C5E"/>
<path d="M70.2369 96.7739C71.6149 96.7739 72.7319 97.891 72.7319 99.2689C72.7319 100.647 71.6149 101.764 70.2369 101.764C68.859 101.764 67.7419 100.647 67.7419 99.2689C67.7419 97.891 68.859 96.7739 70.2369 96.7739Z" fill="#434C5E"/>
<path d="M75.0758 96.7739C76.4538 96.7739 77.5707 97.891 77.5707 99.2689C77.5707 100.647 76.4538 101.764 75.0758 101.764C73.6979 101.764 72.5808 100.647 72.5808 99.2689C72.5808 97.891 73.6979 96.7739 75.0758 96.7739Z" fill="#434C5E"/>
<path d="M84.753 96.7739C86.131 96.7739 87.248 97.891 87.248 99.2689C87.248 100.647 86.131 101.764 84.753 101.764C83.3751 101.764 82.2581 100.647 82.2581 99.2689C82.2581 97.891 83.3751 96.7739 84.753 96.7739Z" fill="#434C5E"/>
<path d="M94.4305 96.7739C95.8085 96.7739 96.9255 97.891 96.9255 99.2689C96.9255 100.647 95.8085 101.764 94.4305 101.764C93.0526 101.764 91.9355 100.647 91.9355 99.2689C91.9355 97.891 93.0526 96.7739 94.4305 96.7739Z" fill="#434C5E"/>
<path d="M113.785 96.7739C115.163 96.7739 116.28 97.891 116.28 99.2689C116.28 100.647 115.163 101.764 113.785 101.764C112.407 101.764 111.29 100.647 111.29 99.2689C111.29 97.891 112.407 96.7739 113.785 96.7739Z" fill="#434C5E"/>
<path d="M118.624 96.7739C120.002 96.7739 121.119 97.891 121.119 99.2689C121.119 100.647 120.002 101.764 118.624 101.764C117.246 101.764 116.129 100.647 116.129 99.2689C116.129 97.891 117.246 96.7739 118.624 96.7739Z" fill="#434C5E"/>
<path d="M128.301 96.7739C129.679 96.7739 130.796 97.891 130.796 99.2689C130.796 100.647 129.679 101.764 128.301 101.764C126.923 101.764 125.806 100.647 125.806 99.2689C125.806 97.891 126.923 96.7739 128.301 96.7739Z" fill="#434C5E"/>
<path d="M137.979 96.7739C139.357 96.7739 140.474 97.891 140.474 99.2689C140.474 100.647 139.357 101.764 137.979 101.764C136.601 101.764 135.484 100.647 135.484 99.2689C135.484 97.891 136.601 96.7739 137.979 96.7739Z" fill="#434C5E"/>
<path d="M7.33358 101.613C8.71157 101.613 9.82854 102.73 9.82854 104.108C9.82854 105.486 8.71157 106.603 7.33358 106.603C5.95567 106.603 4.83862 105.486 4.83862 104.108C4.83862 102.73 5.95567 101.613 7.33358 101.613Z" fill="#434C5E"/>
<path d="M17.0108 101.613C18.3888 101.613 19.5058 102.73 19.5058 104.108C19.5058 105.486 18.3888 106.603 17.0108 106.603C15.6329 106.603 14.5159 105.486 14.5159 104.108C14.5159 102.73 15.6329 101.613 17.0108 101.613Z" fill="#434C5E"/>
<path d="M21.8497 101.613C23.2277 101.613 24.3447 102.73 24.3447 104.108C24.3447 105.486 23.2277 106.603 21.8497 106.603C20.4718 106.603 19.3547 105.486 19.3547 104.108C19.3547 102.73 20.4718 101.613 21.8497 101.613Z" fill="#434C5E"/>
<path d="M26.6886 101.613C28.0665 101.613 29.1835 102.73 29.1835 104.108C29.1835 105.486 28.0665 106.603 26.6886 106.603C25.3106 106.603 24.1936 105.486 24.1936 104.108C24.1936 102.73 25.3106 101.613 26.6886 101.613Z" fill="#434C5E"/>
<path d="M36.3658 101.613C37.7438 101.613 38.8608 102.73 38.8608 104.108C38.8608 105.486 37.7438 106.603 36.3658 106.603C34.9879 106.603 33.8708 105.486 33.8708 104.108C33.8708 102.73 34.9879 101.613 36.3658 101.613Z" fill="#434C5E"/>
<path d="M41.2047 101.613C42.5827 101.613 43.6996 102.73 43.6996 104.108C43.6996 105.486 42.5827 106.603 41.2047 106.603C39.8268 106.603 38.7097 105.486 38.7097 104.108C38.7097 102.73 39.8268 101.613 41.2047 101.613Z" fill="#434C5E"/>
<path d="M46.0433 101.613C47.4213 101.613 48.5383 102.73 48.5383 104.108C48.5383 105.486 47.4213 106.603 46.0433 106.603C44.6654 106.603 43.5483 105.486 43.5483 104.108C43.5483 102.73 44.6654 101.613 46.0433 101.613Z" fill="#434C5E"/>
<path d="M50.8819 101.613C52.2599 101.613 53.3769 102.73 53.3769 104.108C53.3769 105.486 52.2599 106.603 50.8819 106.603C49.504 106.603 48.387 105.486 48.387 104.108C48.387 102.73 49.504 101.613 50.8819 101.613Z" fill="#434C5E"/>
<path d="M94.4305 101.613C95.8085 101.613 96.9255 102.73 96.9255 104.108C96.9255 105.486 95.8085 106.603 94.4305 106.603C93.0526 106.603 91.9355 105.486 91.9355 104.108C91.9355 102.73 93.0526 101.613 94.4305 101.613Z" fill="#434C5E"/>
<path d="M104.108 101.613C105.486 101.613 106.603 102.73 106.603 104.108C106.603 105.486 105.486 106.603 104.108 106.603C102.73 106.603 101.613 105.486 101.613 104.108C101.613 102.73 102.73 101.613 104.108 101.613Z" fill="#434C5E"/>
<path d="M108.947 101.613C110.325 101.613 111.442 102.73 111.442 104.108C111.442 105.486 110.325 106.603 108.947 106.603C107.569 106.603 106.452 105.486 106.452 104.108C106.452 102.73 107.569 101.613 108.947 101.613Z" fill="#434C5E"/>
<path d="M113.785 101.613C115.163 101.613 116.28 102.73 116.28 104.108C116.28 105.486 115.163 106.603 113.785 106.603C112.407 106.603 111.29 105.486 111.29 104.108C111.29 102.73 112.407 101.613 113.785 101.613Z" fill="#434C5E"/>
<path d="M118.624 101.613C120.002 101.613 121.119 102.73 121.119 104.108C121.119 105.486 120.002 106.603 118.624 106.603C117.246 106.603 116.129 105.486 116.129 104.108C116.129 102.73 117.246 101.613 118.624 101.613Z" fill="#434C5E"/>
<path d="M123.463 101.613C124.841 101.613 125.958 102.73 125.958 104.108C125.958 105.486 124.841 106.603 123.463 106.603C122.085 106.603 120.968 105.486 120.968 104.108C120.968 102.73 122.085 101.613 123.463 101.613Z" fill="#434C5E"/>
<path d="M133.14 101.613C134.518 101.613 135.635 102.73 135.635 104.108C135.635 105.486 134.518 106.603 133.14 106.603C131.762 106.603 130.645 105.486 130.645 104.108C130.645 102.73 131.762 101.613 133.14 101.613Z" fill="#434C5E"/>
<path d="M137.979 101.613C139.357 101.613 140.474 102.73 140.474 104.108C140.474 105.486 139.357 106.603 137.979 106.603C136.601 106.603 135.484 105.486 135.484 104.108C135.484 102.73 136.601 101.613 137.979 101.613Z" fill="#434C5E"/>
<path d="M142.817 101.613C144.195 101.613 145.312 102.73 145.312 104.108C145.312 105.486 144.195 106.603 142.817 106.603C141.44 106.603 140.323 105.486 140.323 104.108C140.323 102.73 141.44 101.613 142.817 101.613Z" fill="#434C5E"/>
<path d="M46.0433 106.452C47.4213 106.452 48.5383 107.569 48.5383 108.947C48.5383 110.325 47.4213 111.442 46.0433 111.442C44.6654 111.442 43.5483 110.325 43.5483 108.947C43.5483 107.569 44.6654 106.452 46.0433 106.452Z" fill="#434C5E"/>
<path d="M60.5594 106.452C61.9374 106.452 63.0544 107.569 63.0544 108.947C63.0544 110.325 61.9374 111.442 60.5594 111.442C59.1815 111.442 58.0645 110.325 58.0645 108.947C58.0645 107.569 59.1815 106.452 60.5594 106.452Z" fill="#434C5E"/>
<path d="M65.398 106.452C66.776 106.452 67.893 107.569 67.893 108.947C67.893 110.325 66.776 111.442 65.398 111.442C64.0201 111.442 62.9031 110.325 62.9031 108.947C62.9031 107.569 64.0201 106.452 65.398 106.452Z" fill="#434C5E"/>
<path d="M70.2367 106.452C71.6146 106.452 72.7316 107.569 72.7316 108.947C72.7316 110.325 71.6146 111.442 70.2367 111.442C68.8587 111.442 67.7417 110.325 67.7417 108.947C67.7417 107.569 68.8587 106.452 70.2367 106.452Z" fill="#434C5E"/>
<path d="M75.0755 106.452C76.4535 106.452 77.5705 107.569 77.5705 108.947C77.5705 110.325 76.4535 111.442 75.0755 111.442C73.6976 111.442 72.5806 110.325 72.5806 108.947C72.5806 107.569 73.6976 106.452 75.0755 106.452Z" fill="#434C5E"/>
<path d="M79.9141 106.452C81.2921 106.452 82.4091 107.569 82.4091 108.947C82.4091 110.325 81.2921 111.442 79.9141 111.442C78.5362 111.442 77.4192 110.325 77.4192 108.947C77.4192 107.569 78.5362 106.452 79.9141 106.452Z" fill="#434C5E"/>
<path d="M94.4303 106.452C95.8082 106.452 96.9252 107.569 96.9252 108.947C96.9252 110.325 95.8082 111.442 94.4303 111.442C93.0523 111.442 91.9353 110.325 91.9353 108.947C91.9353 107.569 93.0523 106.452 94.4303 106.452Z" fill="#434C5E"/>
<path d="M99.2691 106.452C100.647 106.452 101.764 107.569 101.764 108.947C101.764 110.325 100.647 111.442 99.2691 111.442C97.8912 111.442 96.7742 110.325 96.7742 108.947C96.7742 107.569 97.8912 106.452 99.2691 106.452Z" fill="#434C5E"/>
<path d="M104.108 106.452C105.486 106.452 106.603 107.569 106.603 108.947C106.603 110.325 105.486 111.442 104.108 111.442C102.73 111.442 101.613 110.325 101.613 108.947C101.613 107.569 102.73 106.452 104.108 106.452Z" fill="#434C5E"/>
<path d="M123.462 106.452C124.84 106.452 125.957 107.569 125.957 108.947C125.957 110.325 124.84 111.442 123.462 111.442C122.085 111.442 120.968 110.325 120.968 108.947C120.968 107.569 122.085 106.452 123.462 106.452Z" fill="#434C5E"/>
<path d="M128.301 106.452C129.679 106.452 130.796 107.569 130.796 108.947C130.796 110.325 129.679 111.442 128.301 111.442C126.923 111.442 125.806 110.325 125.806 108.947C125.806 107.569 126.923 106.452 128.301 106.452Z" fill="#434C5E"/>
<path d="M142.817 106.452C144.195 106.452 145.312 107.569 145.312 108.947C145.312 110.325 144.195 111.442 142.817 111.442C141.44 111.442 140.323 110.325 140.323 108.947C140.323 107.569 141.44 106.452 142.817 106.452Z" fill="#434C5E"/>
<path d="M60.5594 111.29C61.9374 111.29 63.0544 112.407 63.0544 113.785C63.0544 115.163 61.9374 116.28 60.5594 116.28C59.1815 116.28 58.0645 115.163 58.0645 113.785C58.0645 112.407 59.1815 111.29 60.5594 111.29Z" fill="#434C5E"/>
<path d="M65.3983 111.29C66.7763 111.29 67.8932 112.407 67.8932 113.785C67.8932 115.163 66.7763 116.28 65.3983 116.28C64.0204 116.28 62.9033 115.163 62.9033 113.785C62.9033 112.407 64.0204 111.29 65.3983 111.29Z" fill="#434C5E"/>
<path d="M70.2369 111.29C71.6149 111.29 72.7319 112.407 72.7319 113.785C72.7319 115.163 71.6149 116.28 70.2369 116.28C68.859 116.28 67.7419 115.163 67.7419 113.785C67.7419 112.407 68.859 111.29 70.2369 111.29Z" fill="#434C5E"/>
<path d="M75.0758 111.29C76.4538 111.29 77.5707 112.407 77.5707 113.785C77.5707 115.163 76.4538 116.28 75.0758 116.28C73.6979 116.28 72.5808 115.163 72.5808 113.785C72.5808 112.407 73.6979 111.29 75.0758 111.29Z" fill="#434C5E"/>
<path d="M79.9144 111.29C81.2924 111.29 82.4094 112.407 82.4094 113.785C82.4094 115.163 81.2924 116.28 79.9144 116.28C78.5365 116.28 77.4194 115.163 77.4194 113.785C77.4194 112.407 78.5365 111.29 79.9144 111.29Z" fill="#434C5E"/>
<path d="M94.4305 111.29C95.8085 111.29 96.9255 112.407 96.9255 113.785C96.9255 115.163 95.8085 116.28 94.4305 116.28C93.0526 116.28 91.9355 115.163 91.9355 113.785C91.9355 112.407 93.0526 111.29 94.4305 111.29Z" fill="#434C5E"/>
<path d="M99.2691 111.29C100.647 111.29 101.764 112.407 101.764 113.785C101.764 115.163 100.647 116.28 99.2691 116.28C97.8912 116.28 96.7742 115.163 96.7742 113.785C96.7742 112.407 97.8912 111.29 99.2691 111.29Z" fill="#434C5E"/>
<path d="M104.108 111.29C105.486 111.29 106.603 112.407 106.603 113.785C106.603 115.163 105.486 116.28 104.108 116.28C102.73 116.28 101.613 115.163 101.613 113.785C101.613 112.407 102.73 111.29 104.108 111.29Z" fill="#434C5E"/>
<path d="M113.785 111.29C115.163 111.29 116.28 112.407 116.28 113.785C116.28 115.163 115.163 116.28 113.785 116.28C112.407 116.28 111.29 115.163 111.29 113.785C111.29 112.407 112.407 111.29 113.785 111.29Z" fill="#434C5E"/>
<path d="M123.463 111.29C124.841 111.29 125.958 112.407 125.958 113.785C125.958 115.163 124.841 116.28 123.463 116.28C122.085 116.28 120.968 115.163 120.968 113.785C120.968 112.407 122.085 111.29 123.463 111.29Z" fill="#434C5E"/>
<path d="M60.5594 116.129C61.9374 116.129 63.0544 117.246 63.0544 118.624C63.0544 120.002 61.9374 121.119 60.5594 121.119C59.1815 121.119 58.0645 120.002 58.0645 118.624C58.0645 117.246 59.1815 116.129 60.5594 116.129Z" fill="#434C5E"/>
<path d="M79.9144 116.129C81.2924 116.129 82.4094 117.246 82.4094 118.624C82.4094 120.002 81.2924 121.119 79.9144 121.119C78.5365 121.119 77.4194 120.002 77.4194 118.624C77.4194 117.246 78.5365 116.129 79.9144 116.129Z" fill="#434C5E"/>
<path d="M99.2689 116.129C100.647 116.129 101.764 117.246 101.764 118.624C101.764 120.002 100.647 121.119 99.2689 121.119C97.891 121.119 96.7739 120.002 96.7739 118.624C96.7739 117.246 97.891 116.129 99.2689 116.129Z" fill="#434C5E"/>
<path d="M104.108 116.129C105.486 116.129 106.603 117.246 106.603 118.624C106.603 120.002 105.486 121.119 104.108 121.119C102.73 121.119 101.613 120.002 101.613 118.624C101.613 117.246 102.73 116.129 104.108 116.129Z" fill="#434C5E"/>
<path d="M123.463 116.129C124.841 116.129 125.958 117.246 125.958 118.624C125.958 120.002 124.841 121.119 123.463 121.119C122.085 121.119 120.968 120.002 120.968 118.624C120.968 117.246 122.085 116.129 123.463 116.129Z" fill="#434C5E"/>
<path d="M128.301 116.129C129.679 116.129 130.796 117.246 130.796 118.624C130.796 120.002 129.679 121.119 128.301 121.119C126.923 121.119 125.806 120.002 125.806 118.624C125.806 117.246 126.923 116.129 128.301 116.129Z" fill="#434C5E"/>
<path d="M137.979 116.129C139.357 116.129 140.474 117.246 140.474 118.624C140.474 120.002 139.357 121.119 137.979 121.119C136.601 121.119 135.484 120.002 135.484 118.624C135.484 117.246 136.601 116.129 137.979 116.129Z" fill="#434C5E"/>
<path d="M142.817 116.129C144.195 116.129 145.312 117.246 145.312 118.624C145.312 120.002 144.195 121.119 142.817 121.119C141.44 121.119 140.323 120.002 140.323 118.624C140.323 117.246 141.44 116.129 142.817 116.129Z" fill="#434C5E"/>
<path d="M46.0433 120.968C47.4213 120.968 48.5383 122.085 48.5383 123.463C48.5383 124.841 47.4213 125.958 46.0433 125.958C44.6654 125.958 43.5483 124.841 43.5483 123.463C43.5483 122.085 44.6654 120.968 46.0433 120.968Z" fill="#434C5E"/>
<path d="M50.8819 120.968C52.2599 120.968 53.3769 122.085 53.3769 123.463C53.3769 124.841 52.2599 125.958 50.8819 125.958C49.504 125.958 48.387 124.841 48.387 123.463C48.387 122.085 49.504 120.968 50.8819 120.968Z" fill="#434C5E"/>
<path d="M75.0755 120.968C76.4535 120.968 77.5705 122.085 77.5705 123.463C77.5705 124.841 76.4535 125.958 75.0755 125.958C73.6976 125.958 72.5806 124.841 72.5806 123.463C72.5806 122.085 73.6976 120.968 75.0755 120.968Z" fill="#434C5E"/>
<path d="M84.7528 120.968C86.1308 120.968 87.2477 122.085 87.2477 123.463C87.2477 124.841 86.1308 125.958 84.7528 125.958C83.3749 125.958 82.2578 124.841 82.2578 123.463C82.2578 122.085 83.3749 120.968 84.7528 120.968Z" fill="#434C5E"/>
<path d="M104.108 120.968C105.486 120.968 106.603 122.085 106.603 123.463C106.603 124.841 105.486 125.958 104.108 125.958C102.73 125.958 101.613 124.841 101.613 123.463C101.613 122.085 102.73 120.968 104.108 120.968Z" fill="#434C5E"/>
<path d="M108.946 120.968C110.324 120.968 111.441 122.085 111.441 123.463C111.441 124.841 110.324 125.958 108.946 125.958C107.568 125.958 106.451 124.841 106.451 123.463C106.451 122.085 107.568 120.968 108.946 120.968Z" fill="#434C5E"/>
<path d="M113.785 120.968C115.163 120.968 116.28 122.085 116.28 123.463C116.28 124.841 115.163 125.958 113.785 125.958C112.407 125.958 111.29 124.841 111.29 123.463C111.29 122.085 112.407 120.968 113.785 120.968Z" fill="#434C5E"/>
<path d="M118.624 120.968C120.002 120.968 121.119 122.085 121.119 123.463C121.119 124.841 120.002 125.958 118.624 125.958C117.246 125.958 116.129 124.841 116.129 123.463C116.129 122.085 117.246 120.968 118.624 120.968Z" fill="#434C5E"/>
<path d="M123.462 120.968C124.84 120.968 125.957 122.085 125.957 123.463C125.957 124.841 124.84 125.958 123.462 125.958C122.085 125.958 120.968 124.841 120.968 123.463C120.968 122.085 122.085 120.968 123.462 120.968Z" fill="#434C5E"/>
<path d="M128.301 120.968C129.679 120.968 130.796 122.085 130.796 123.463C130.796 124.841 129.679 125.958 128.301 125.958C126.923 125.958 125.806 124.841 125.806 123.463C125.806 122.085 126.923 120.968 128.301 120.968Z" fill="#434C5E"/>
<path d="M133.14 120.968C134.518 120.968 135.635 122.085 135.635 123.463C135.635 124.841 134.518 125.958 133.14 125.958C131.762 125.958 130.645 124.841 130.645 123.463C130.645 122.085 131.762 120.968 133.14 120.968Z" fill="#434C5E"/>
<path d="M142.817 120.968C144.195 120.968 145.312 122.085 145.312 123.463C145.312 124.841 144.195 125.958 142.817 125.958C141.44 125.958 140.323 124.841 140.323 123.463C140.323 122.085 141.44 120.968 142.817 120.968Z" fill="#434C5E"/>
<path d="M46.0433 125.806C47.4213 125.806 48.5383 126.923 48.5383 128.301C48.5383 129.679 47.4213 130.796 46.0433 130.796C44.6654 130.796 43.5483 129.679 43.5483 128.301C43.5483 126.923 44.6654 125.806 46.0433 125.806Z" fill="#434C5E"/>
<path d="M50.8819 125.806C52.2599 125.806 53.3769 126.923 53.3769 128.301C53.3769 129.679 52.2599 130.796 50.8819 130.796C49.504 130.796 48.387 129.679 48.387 128.301C48.387 126.923 49.504 125.806 50.8819 125.806Z" fill="#434C5E"/>
<path d="M55.7208 125.806C57.0988 125.806 58.2157 126.923 58.2157 128.301C58.2157 129.679 57.0988 130.796 55.7208 130.796C54.3429 130.796 53.2258 129.679 53.2258 128.301C53.2258 126.923 54.3429 125.806 55.7208 125.806Z" fill="#434C5E"/>
<path d="M75.0758 125.806C76.4538 125.806 77.5707 126.923 77.5707 128.301C77.5707 129.679 76.4538 130.796 75.0758 130.796C73.6979 130.796 72.5808 129.679 72.5808 128.301C72.5808 126.923 73.6979 125.806 75.0758 125.806Z" fill="#434C5E"/>
<path d="M79.9144 125.806C81.2924 125.806 82.4094 126.923 82.4094 128.301C82.4094 129.679 81.2924 130.796 79.9144 130.796C78.5365 130.796 77.4194 129.679 77.4194 128.301C77.4194 126.923 78.5365 125.806 79.9144 125.806Z" fill="#434C5E"/>
<path d="M94.4305 125.806C95.8085 125.806 96.9255 126.923 96.9255 128.301C96.9255 129.679 95.8085 130.796 94.4305 130.796C93.0526 130.796 91.9355 129.679 91.9355 128.301C91.9355 126.923 93.0526 125.806 94.4305 125.806Z" fill="#434C5E"/>
<path d="M99.2691 125.806C100.647 125.806 101.764 126.923 101.764 128.301C101.764 129.679 100.647 130.796 99.2691 130.796C97.8912 130.796 96.7742 129.679 96.7742 128.301C96.7742 126.923 97.8912 125.806 99.2691 125.806Z" fill="#434C5E"/>
<path d="M104.108 125.806C105.486 125.806 106.603 126.923 106.603 128.301C106.603 129.679 105.486 130.796 104.108 130.796C102.73 130.796 101.613 129.679 101.613 128.301C101.613 126.923 102.73 125.806 104.108 125.806Z" fill="#434C5E"/>
<path d="M108.947 125.806C110.325 125.806 111.442 126.923 111.442 128.301C111.442 129.679 110.325 130.796 108.947 130.796C107.569 130.796 106.452 129.679 106.452 128.301C106.452 126.923 107.569 125.806 108.947 125.806Z" fill="#434C5E"/>
<path d="M118.624 125.806C120.002 125.806 121.119 126.923 121.119 128.301C121.119 129.679 120.002 130.796 118.624 130.796C117.246 130.796 116.129 129.679 116.129 128.301C116.129 126.923 117.246 125.806 118.624 125.806Z" fill="#434C5E"/>
<path d="M46.0433 130.645C47.4213 130.645 48.5383 131.762 48.5383 133.14C48.5383 134.518 47.4213 135.635 46.0433 135.635C44.6654 135.635 43.5483 134.518 43.5483 133.14C43.5483 131.762 44.6654 130.645 46.0433 130.645Z" fill="#434C5E"/>
<path d="M70.2369 130.645C71.6149 130.645 72.7319 131.762 72.7319 133.14C72.7319 134.518 71.6149 135.635 70.2369 135.635C68.859 135.635 67.7419 134.518 67.7419 133.14C67.7419 131.762 68.859 130.645 70.2369 130.645Z" fill="#434C5E"/>
<path d="M89.5916 130.645C90.9696 130.645 92.0866 131.762 92.0866 133.14C92.0866 134.518 90.9696 135.635 89.5916 135.635C88.2137 135.635 87.0967 134.518 87.0967 133.14C87.0967 131.762 88.2137 130.645 89.5916 130.645Z" fill="#434C5E"/>
<path d="M99.2689 130.645C100.647 130.645 101.764 131.762 101.764 133.14C101.764 134.518 100.647 135.635 99.2689 135.635C97.891 135.635 96.7739 134.518 96.7739 133.14C96.7739 131.762 97.891 130.645 99.2689 130.645Z" fill="#434C5E"/>
<path d="M104.108 130.645C105.486 130.645 106.603 131.762 106.603 133.14C106.603 134.518 105.486 135.635 104.108 135.635C102.73 135.635 101.613 134.518 101.613 133.14C101.613 131.762 102.73 130.645 104.108 130.645Z" fill="#434C5E"/>
<path d="M108.947 130.645C110.325 130.645 111.442 131.762 111.442 133.14C111.442 134.518 110.325 135.635 108.947 135.635C107.569 135.635 106.452 134.518 106.452 133.14C106.452 131.762 107.569 130.645 108.947 130.645Z" fill="#434C5E"/>
<path d="M113.785 130.645C115.163 130.645 116.28 131.762 116.28 133.14C116.28 134.518 115.163 135.635 113.785 135.635C112.407 135.635 111.29 134.518 111.29 133.14C111.29 131.762 112.407 130.645 113.785 130.645Z" fill="#434C5E"/>
<path d="M118.624 130.645C120.002 130.645 121.119 131.762 121.119 133.14C121.119 134.518 120.002 135.635 118.624 135.635C117.246 135.635 116.129 134.518 116.129 133.14C116.129 131.762 117.246 130.645 118.624 130.645Z" fill="#434C5E"/>
<path d="M123.463 130.645C124.841 130.645 125.958 131.762 125.958 133.14C125.958 134.518 124.841 135.635 123.463 135.635C122.085 135.635 120.968 134.518 120.968 133.14C120.968 131.762 122.085 130.645 123.463 130.645Z" fill="#434C5E"/>
<path d="M128.301 130.645C129.679 130.645 130.796 131.762 130.796 133.14C130.796 134.518 129.679 135.635 128.301 135.635C126.923 135.635 125.806 134.518 125.806 133.14C125.806 131.762 126.923 130.645 128.301 130.645Z" fill="#434C5E"/>
<path d="M137.979 130.645C139.357 130.645 140.474 131.762 140.474 133.14C140.474 134.518 139.357 135.635 137.979 135.635C136.601 135.635 135.484 134.518 135.484 133.14C135.484 131.762 136.601 130.645 137.979 130.645Z" fill="#434C5E"/>
<path d="M55.7205 135.484C57.0985 135.484 58.2155 136.601 58.2155 137.979C58.2155 139.357 57.0985 140.474 55.7205 140.474C54.3426 140.474 53.2256 139.357 53.2256 137.979C53.2256 136.601 54.3426 135.484 55.7205 135.484Z" fill="#434C5E"/>
<path d="M65.398 135.484C66.776 135.484 67.893 136.601 67.893 137.979C67.893 139.357 66.776 140.474 65.398 140.474C64.0201 140.474 62.9031 139.357 62.9031 137.979C62.9031 136.601 64.0201 135.484 65.398 135.484Z" fill="#434C5E"/>
<path d="M70.2367 135.484C71.6146 135.484 72.7316 136.601 72.7316 137.979C72.7316 139.357 71.6146 140.474 70.2367 140.474C68.8587 140.474 67.7417 139.357 67.7417 137.979C67.7417 136.601 68.8587 135.484 70.2367 135.484Z" fill="#434C5E"/>
<path d="M79.9141 135.484C81.2921 135.484 82.4091 136.601 82.4091 137.979C82.4091 139.357 81.2921 140.474 79.9141 140.474C78.5362 140.474 77.4192 139.357 77.4192 137.979C77.4192 136.601 78.5362 135.484 79.9141 135.484Z" fill="#434C5E"/>
<path d="M89.5916 135.484C90.9696 135.484 92.0866 136.601 92.0866 137.979C92.0866 139.357 90.9696 140.474 89.5916 140.474C88.2137 140.474 87.0967 139.357 87.0967 137.979C87.0967 136.601 88.2137 135.484 89.5916 135.484Z" fill="#434C5E"/>
<path d="M94.4303 135.484C95.8082 135.484 96.9252 136.601 96.9252 137.979C96.9252 139.357 95.8082 140.474 94.4303 140.474C93.0523 140.474 91.9353 139.357 91.9353 137.979C91.9353 136.601 93.0523 135.484 94.4303 135.484Z" fill="#434C5E"/>
<path d="M104.108 135.484C105.486 135.484 106.603 136.601 106.603 137.979C106.603 139.357 105.486 140.474 104.108 140.474C102.73 140.474 101.613 139.357 101.613 137.979C101.613 136.601 102.73 135.484 104.108 135.484Z" fill="#434C5E"/>
<path d="M113.785 135.484C115.163 135.484 116.28 136.601 116.28 137.979C116.28 139.357 115.163 140.474 113.785 140.474C112.407 140.474 111.29 139.357 111.29 137.979C111.29 136.601 112.407 135.484 113.785 135.484Z" fill="#434C5E"/>
<path d="M123.462 135.484C124.84 135.484 125.957 136.601 125.957 137.979C125.957 139.357 124.84 140.474 123.462 140.474C122.085 140.474 120.968 139.357 120.968 137.979C120.968 136.601 122.085 135.484 123.462 135.484Z" fill="#434C5E"/>
<path d="M137.979 135.484C139.357 135.484 140.474 136.601 140.474 137.979C140.474 139.357 139.357 140.474 137.979 140.474C136.601 140.474 135.484 139.357 135.484 137.979C135.484 136.601 136.601 135.484 137.979 135.484Z" fill="#434C5E"/>
<path d="M50.8822 140.323C52.2602 140.323 53.3771 141.44 53.3771 142.818C53.3771 144.196 52.2602 145.313 50.8822 145.313C49.5043 145.313 48.3872 144.196 48.3872 142.818C48.3872 141.44 49.5043 140.323 50.8822 140.323Z" fill="#434C5E"/>
<path d="M55.7208 140.323C57.0988 140.323 58.2157 141.44 58.2157 142.818C58.2157 144.196 57.0988 145.313 55.7208 145.313C54.3429 145.313 53.2258 144.196 53.2258 142.818C53.2258 141.44 54.3429 140.323 55.7208 140.323Z" fill="#434C5E"/>
<path d="M60.5597 140.323C61.9376 140.323 63.0546 141.44 63.0546 142.818C63.0546 144.196 61.9376 145.313 60.5597 145.313C59.1817 145.313 58.0647 144.196 58.0647 142.818C58.0647 141.44 59.1817 140.323 60.5597 140.323Z" fill="#434C5E"/>
<path d="M65.3983 140.323C66.7763 140.323 67.8932 141.44 67.8932 142.818C67.8932 144.196 66.7763 145.313 65.3983 145.313C64.0204 145.313 62.9033 144.196 62.9033 142.818C62.9033 141.44 64.0204 140.323 65.3983 140.323Z" fill="#434C5E"/>
<path d="M70.2369 140.323C71.6149 140.323 72.7319 141.44 72.7319 142.818C72.7319 144.196 71.6149 145.313 70.2369 145.313C68.859 145.313 67.7419 144.196 67.7419 142.818C67.7419 141.44 68.859 140.323 70.2369 140.323Z" fill="#434C5E"/>
<path d="M75.0758 140.323C76.4538 140.323 77.5707 141.44 77.5707 142.818C77.5707 144.196 76.4538 145.313 75.0758 145.313C73.6979 145.313 72.5808 144.196 72.5808 142.818C72.5808 141.44 73.6979 140.323 75.0758 140.323Z" fill="#434C5E"/>
<path d="M99.2691 140.323C100.647 140.323 101.764 141.44 101.764 142.818C101.764 144.196 100.647 145.313 99.2691 145.313C97.8912 145.313 96.7742 144.196 96.7742 142.818C96.7742 141.44 97.8912 140.323 99.2691 140.323Z" fill="#434C5E"/>
<path d="M113.785 140.323C115.163 140.323 116.28 141.44 116.28 142.818C116.28 144.196 115.163 145.313 113.785 145.313C112.407 145.313 111.29 144.196 111.29 142.818C111.29 141.44 112.407 140.323 113.785 140.323Z" fill="#434C5E"/>
<path d="M123.463 140.323C124.841 140.323 125.958 141.44 125.958 142.818C125.958 144.196 124.841 145.313 123.463 145.313C122.085 145.313 120.968 144.196 120.968 142.818C120.968 141.44 122.085 140.323 123.463 140.323Z" fill="#434C5E"/>
<path d="M133.14 140.323C134.518 140.323 135.635 141.44 135.635 142.818C135.635 144.196 134.518 145.313 133.14 145.313C131.762 145.313 130.645 144.196 130.645 142.818C130.645 141.44 131.762 140.323 133.14 140.323Z" fill="#434C5E"/>
<path d="M27.1457 4.84131H16.4025C11.1667 4.84131 6.73099 8.30055 5.31282 13.0286C5.16616 13.5177 5.05167 14.0203 4.97207 14.5342C4.88435 15.1012 4.83862 15.6817 4.83862 16.2728V27.271C4.83862 33.5774 10.0277 38.7058 16.4025 38.7058L21.7741 38.7069L27.1457 38.7055C33.5202 38.7055 38.7096 33.5771 38.7096 27.2707V16.2728C38.7096 9.96937 33.5206 4.84131 27.1457 4.84131ZM33.6289 27.271C33.6289 30.7746 30.7208 33.6252 27.1444 33.6252L21.7741 33.6262L16.4039 33.6249C12.8274 33.6249 9.91927 30.7743 9.91927 27.271V16.2728C9.91927 15.1784 10.2031 14.148 10.7027 13.2477C11.1837 12.3817 11.8641 11.6368 12.6835 11.0729C13.7369 10.3477 15.0196 9.92195 16.4022 9.92195H27.1457C30.7208 9.92195 33.6289 12.7708 33.6289 16.2728V27.271Z" fill="#434C5E"/>
<path d="M133.597 4.84131H122.854C117.618 4.84131 113.183 8.30055 111.764 13.0286C111.618 13.5177 111.503 14.0203 111.424 14.5342C111.336 15.1012 111.29 15.6817 111.29 16.2728V27.271C111.29 33.5774 116.479 38.7058 122.854 38.7058L128.226 38.7069L133.597 38.7055C139.972 38.7055 145.161 33.5771 145.161 27.2707V16.2728C145.161 9.96937 139.972 4.84131 133.597 4.84131ZM140.081 27.271C140.081 30.7746 137.172 33.6252 133.596 33.6252L128.226 33.6262L122.856 33.6249C119.279 33.6249 116.371 30.7743 116.371 27.271V16.2728C116.371 15.1784 116.655 14.148 117.154 13.2477C117.635 12.3817 118.316 11.6368 119.135 11.0729C120.189 10.3477 121.471 9.92195 122.854 9.92195H133.597C137.172 9.92195 140.081 12.7708 140.081 16.2728V27.271Z" fill="#434C5E"/>
<path d="M27.1457 111.293H16.4025C11.1667 111.293 6.73099 114.752 5.31282 119.48C5.16616 119.969 5.05167 120.472 4.97207 120.986C4.88435 121.553 4.83862 122.133 4.83862 122.724V133.723C4.83862 140.029 10.0277 145.157 16.4025 145.157L21.7741 145.159L27.1457 145.157C33.5202 145.157 38.7096 140.029 38.7096 133.722V122.724C38.7096 116.421 33.5206 111.293 27.1457 111.293ZM33.6289 133.723C33.6289 137.226 30.7208 140.077 27.1444 140.077L21.7741 140.078L16.4039 140.077C12.8274 140.077 9.91927 137.226 9.91927 133.723V122.724C9.91927 121.63 10.2031 120.6 10.7027 119.699C11.1837 118.833 11.8641 118.089 12.6835 117.525C13.7369 116.799 15.0196 116.374 16.4022 116.374H27.1457C30.7208 116.374 33.6289 119.223 33.6289 122.724V133.723Z" fill="#434C5E"/>
<path d="M18.4863 29.0322C16.2958 29.0322 14.5139 27.2857 14.5139 25.1408V18.4056C14.5139 17.7355 14.6881 17.1049 14.9931 16.5532C15.2876 16.0222 15.7045 15.5658 16.2066 15.2215C16.8516 14.7775 17.6378 14.5161 18.4841 14.5161H25.0638C27.2523 14.5161 29.0341 16.2607 29.0341 18.4054V25.1406C29.0341 27.2854 27.2524 29.0321 25.0638 29.0321H21.774L18.4863 29.0322Z" fill="#00AEEF"/>
<path d="M124.938 29.0322C122.747 29.0322 120.966 27.2857 120.966 25.1408V18.4056C120.966 17.7355 121.14 17.1049 121.445 16.5532C121.739 16.0222 122.156 15.5658 122.658 15.2215C123.303 14.7775 124.089 14.5161 124.936 14.5161H131.515C133.704 14.5161 135.486 16.2607 135.486 18.4054V25.1406C135.486 27.2854 133.704 29.0321 131.515 29.0321H128.226L124.938 29.0322Z" fill="#00AEEF"/>
<path d="M18.4863 135.484C16.2958 135.484 14.5139 133.737 14.5139 131.592V124.857C14.5139 124.187 14.6881 123.557 14.9931 123.005C15.2876 122.474 15.7045 122.017 16.2066 121.673C16.8516 121.229 17.6378 120.968 18.4841 120.968H25.0638C27.2523 120.968 29.0341 122.712 29.0341 124.857V131.592C29.0341 133.737 27.2524 135.484 25.0638 135.484H21.774L18.4863 135.484Z" fill="#00AEEF"/>
<rect x="52.7249" y="53.2256" width="44.5504" height="43.6997" rx="2.50736" fill="#F7F8FA"/>
<g clip-path="url(#clip1_13104_324139)">
<rect width="38.3268" height="38.3268" transform="translate(55.8591 55.9121)" fill="#F7F8FA"/>
<path d="M65.5847 55.9121C64.183 55.9121 63.0454 57.0151 63.0454 58.3742V60.6722C63.0454 60.6755 63.0454 60.6804 63.0454 60.6853C63.0454 63.9172 64.3828 66.8455 66.5514 68.9793L66.5497 68.9777C68.0902 70.5058 70.0624 71.6187 72.275 72.1292L72.3562 72.1456H72.4917V77.9397H72.3562C70.0573 78.4798 68.0851 79.609 66.5531 81.1536L66.5497 81.1569C64.3929 83.2874 63.0623 86.2091 63.0623 89.4328C63.0623 89.4427 63.0623 89.4542 63.0623 89.464V89.4624V91.7768C63.0623 93.1358 64.2 94.2389 65.6017 94.2389C67.0034 94.2389 68.141 93.1358 68.141 91.7768V89.4624C68.141 89.4328 68.141 89.3984 68.141 89.3639C68.141 87.4845 68.9163 85.7807 70.1741 84.5365L70.1724 84.5382C71.4048 83.3088 73.1265 82.5455 75.031 82.5455C76.9355 82.5455 78.6571 83.3088 79.8879 84.5365L79.8895 84.5382C81.1457 85.7807 81.921 87.4845 81.921 89.3639C81.921 89.3984 81.921 89.4328 81.921 89.4673V89.4624V91.7768C81.921 93.1358 83.0586 94.2389 84.4603 94.2389C85.862 94.2389 86.9996 93.1358 86.9996 91.7768V89.4624C86.9979 86.2239 85.6538 83.2891 83.4768 81.1552L83.4784 81.1569C81.9379 79.6287 79.9657 78.5159 77.7531 78.0054L77.6719 77.989H77.5364V72.1784H77.6719C79.9691 71.6433 81.9413 70.519 83.4751 68.981L83.4784 68.9777C85.6352 66.8471 86.9658 63.9254 86.9658 60.7017C86.9658 60.6919 86.9658 60.6804 86.9658 60.6705V60.6722V58.3742C86.9658 57.0151 85.8282 55.9121 84.4265 55.9121C83.0248 55.9121 81.8871 57.0151 81.8871 58.3742V60.6722C81.8871 60.7017 81.8871 60.7362 81.8871 60.7707C81.8871 62.6501 81.1118 64.3538 79.854 65.598L79.8557 65.5964C78.6233 66.8258 76.9016 67.589 74.9971 67.589C73.0926 67.589 71.371 66.8258 70.1403 65.598L70.1386 65.5964C68.8825 64.3522 68.1071 62.6451 68.1071 60.7641C68.1071 60.7313 68.1071 60.7001 68.1071 60.6673V60.6722V58.3742C68.1071 57.0201 66.9797 55.922 65.5864 55.9121H65.5847V55.9121ZM70.4264 89.3475C70.4264 86.8903 72.4798 84.8993 75.0141 84.8993C77.5483 84.8993 79.6018 86.8903 79.6018 89.3475C79.6018 91.8047 77.5483 93.7957 75.0141 93.7957C72.4798 93.7957 70.4264 91.8047 70.4264 89.3475Z" fill="#00AEEF"/>
</g>
</g>
<defs>
<clipPath id="clip0_13104_324139">
<rect width="150" height="150" fill="white"/>
</clipPath>
<clipPath id="clip1_13104_324139">
<rect width="38.3268" height="38.3268" fill="white" transform="translate(55.8591 55.9121)"/>
</clipPath>
</defs>
</svg>
